<svg width="100.000000pt" height="100.000000pt" viewBox="0 0 100.000000 100.000000" xmlns="http://www.w3.org/2000/svg">
  <g transform="translate(0.000000,100.000000) scale(0.100000,-0.100000)" fill="#fefefe" stroke="none">
    <path d="M0 500 l0 -500 500 0 500 0 0 500 0 500 -500 0 -500 0 0 -500z m560
385 l54 -55 -15 0 c-9 0 -26 11 -39 25 -13 14 -29 25 -37 25 l-13 0 0 -95 0
-95 -10 0 -10 0 0 95 0 95 -13 0 c-8 0 -24 -11 -37 -25 -13 -14 -30 -25 -39
-25 l-15 0 54 55 c30 30 57 55 60 55 3 0 30 -25 60 -55z m300 -160 l54 -55
-15 0 c-9 0 -26 11 -39 25 -13 14 -29 25 -37 25 l-13 0 0 -95 0 -95 -10 0 -10
0 0 95 0 95 -13 0 c-8 0 -24 -11 -37 -25 -13 -14 -30 -25 -39 -25 l-15 0 54
55 c30 30 57 55 60 55 3 0 30 -25 60 -55z m-600 -140 l54 -55 -15 0 c-9 0 -26
11 -39 25 -13 14 -29 25 -37 25 l-13 0 0 -95 0 -95 -10 0 -10 0 0 95 0 95 -13
0 c-8 0 -24 -11 -37 -25 -13 -14 -30 -25 -39 -25 l-15 0 54 55 c30 30 57 55
60 55 3 0 30 -25 60 -55z m350 -235 l0 -280 -110 0 -110 0 0 280 0 280 110 0
110 0 0 -280z m300 -80 l0 -200 -110 0 -110 0 0 200 0 200 110 0 110 0 0 -200z
m-600 -70 l0 -130 -110 0 -110 0 0 130 0 130 110 0 110 0 0 -130z" />
    <path d="M410 350 l0 -260 90 0 90 0 0 260 0 260 -90 0 -90 0 0 -260z" />
    <path d="M710 270 l0 -180 90 0 90 0 0 180 0 180 -90 0 -90 0 0 -180z" />
    <path d="M110 200 l0 -110 90 0 90 0 0 110 0 110 -90 0 -90 0 0 -110z" />
  </g>
  <g transform="translate(0.000000,100.000000) scale(0.100000,-0.100000)" fill="#000000" stroke="none">
    <path d="M436 901 l-59 -59 6 -16 c4 -9 11 -16 16 -16 6 0 26 14 46 31 l35 31
0 -96 0 -96 20 0 20 0 0 96 0 96 35 -31 c20 -17 40 -31 46 -31 5 0 12 7 16 16
l6 16 -59 59 c-32 32 -61 59 -64 59 -3 0 -32 -27 -64 -59z" />
    <path d="M736 741 l-59 -59 6 -16 c4 -9 11 -16 16 -16 6 0 26 14 46 31 l35 31
0 -96 0 -96 20 0 20 0 0 96 0 96 35 -31 c20 -17 40 -31 46 -31 5 0 12 7 16 16
l6 16 -59 59 c-32 32 -61 59 -64 59 -3 0 -32 -27 -64 -59z" />
    <path d="M136 601 l-59 -59 6 -16 c4 -9 11 -16 16 -16 6 0 26 14 46 31 l35 31
0 -96 0 -96 20 0 20 0 0 96 0 96 35 -31 c20 -17 40 -31 46 -31 5 0 12 7 16 16
l6 16 -59 59 c-32 32 -61 59 -64 59 -3 0 -32 -27 -64 -59z" />
    <path d="M380 350 l0 -290 120 0 120 0 0 290 0 290 -120 0 -120 0 0 -290z
m200 0 l0 -250 -80 0 -80 0 0 250 0 250 80 0 80 0 0 -250z" />
    <path d="M680 270 l0 -210 120 0 120 0 0 210 0 210 -120 0 -120 0 0 -210z
m200 0 l0 -170 -80 0 -80 0 0 170 0 170 80 0 80 0 0 -170z" />
    <path d="M80 200 l0 -140 120 0 120 0 0 140 0 140 -120 0 -120 0 0 -140z m200
0 l0 -100 -80 0 -80 0 0 100 0 100 80 0 80 0 0 -100z" />
  </g>
  <g transform="translate(0.000000,100.000000) scale(0.100000,-0.100000)" fill="#1c1c1c" stroke="none">
    <path d="M440 855 c-19 -19 -29 -35 -24 -35 13 0 69 58 63 65 -3 2 -21 -11
-39 -30z" />
    <path d="M520 886 c0 -11 58 -71 64 -65 3 3 -10 21 -29 39 -19 19 -35 31 -35
26z" />
    <path d="M740 695 c-19 -19 -29 -35 -24 -35 13 0 69 58 63 65 -3 2 -21 -11
-39 -30z" />
    <path d="M820 726 c0 -11 58 -71 64 -65 3 3 -10 21 -29 39 -19 19 -35 31 -35
26z" />
    <path d="M480 688 c0 -4 9 -8 20 -8 11 0 20 4 20 8 0 4 -9 8 -20 8 -11 0 -20
-4 -20 -8z" />
    <path d="M380 629 c0 -5 5 -7 10 -4 6 3 10 8 10 11 0 2 -4 4 -10 4 -5 0 -10
-5 -10 -11z" />
    <path d="M605 630 c3 -5 8 -10 11 -10 2 0 4 5 4 10 0 6 -5 10 -11 10 -5 0 -7
-4 -4 -10z" />
    <path d="M140 555 c-19 -19 -29 -35 -24 -35 13 0 69 58 63 65 -3 2 -21 -11
-39 -30z" />
    <path d="M220 586 c0 -11 58 -71 64 -65 3 3 -10 21 -29 39 -19 19 -35 31 -35
26z" />
    <path d="M780 528 c0 -4 9 -8 20 -8 11 0 20 4 20 8 0 4 -9 8 -20 8 -11 0 -20
-4 -20 -8z" />
    <path d="M680 469 c0 -5 5 -7 10 -4 6 3 10 8 10 11 0 2 -4 4 -10 4 -5 0 -10
-5 -10 -11z" />
    <path d="M905 470 c3 -5 8 -10 11 -10 2 0 4 5 4 10 0 6 -5 10 -11 10 -5 0 -7
-4 -4 -10z" />
    <path d="M180 388 c0 -4 9 -8 20 -8 11 0 20 4 20 8 0 4 -9 8 -20 8 -11 0 -20
-4 -20 -8z" />
    <path d="M80 329 c0 -5 5 -7 10 -4 6 3 10 8 10 11 0 2 -4 4 -10 4 -5 0 -10 -5
-10 -11z" />
    <path d="M305 330 c3 -5 8 -10 11 -10 2 0 4 5 4 10 0 6 -5 10 -11 10 -5 0 -7
-4 -4 -10z" />
    <path d="M80 70 c0 -5 5 -10 11 -10 5 0 7 5 4 10 -3 6 -8 10 -11 10 -2 0 -4
-4 -4 -10z" />
    <path d="M305 70 c-3 -5 -1 -10 4 -10 6 0 11 5 11 10 0 6 -2 10 -4 10 -3 0 -8
-4 -11 -10z" />
    <path d="M380 70 c0 -5 5 -10 11 -10 5 0 7 5 4 10 -3 6 -8 10 -11 10 -2 0 -4
-4 -4 -10z" />
    <path d="M605 70 c-3 -5 -1 -10 4 -10 6 0 11 5 11 10 0 6 -2 10 -4 10 -3 0 -8
-4 -11 -10z" />
    <path d="M680 70 c0 -5 5 -10 11 -10 5 0 7 5 4 10 -3 6 -8 10 -11 10 -2 0 -4
-4 -4 -10z" />
    <path d="M905 70 c-3 -5 -1 -10 4 -10 6 0 11 5 11 10 0 6 -2 10 -4 10 -3 0 -8
-4 -11 -10z" />
  </g>
  <g transform="translate(0.000000,100.000000) scale(0.100000,-0.100000)" fill="#5e5e5e" stroke="none">
    <path d="M435 898 l-60 -63 65 60 c35 33 66 61 69 63 2 1 0 2 -5 2 -5 0 -36
-28 -69 -62z" />
    <path d="M560 897 c0 -2 15 -16 33 -33 l32 -29 -29 33 c-28 30 -36 37 -36 29z" />
    <path d="M735 738 l-60 -63 65 60 c35 33 66 61 69 63 2 1 0 2 -5 2 -5 0 -36
-28 -69 -62z" />
    <path d="M860 737 c0 -2 15 -16 33 -33 l32 -29 -29 33 c-28 30 -36 37 -36 29z" />
    <path d="M135 598 l-60 -63 62 59 63 60 27 -25 28 -24 -24 28 c-14 15 -27 27
-31 27 -3 0 -32 -28 -65 -62z" />
    <path d="M260 597 c0 -2 15 -16 33 -33 l32 -29 -29 33 c-28 30 -36 37 -36 29z" />
  </g>
  <g transform="translate(0.000000,100.000000) scale(0.100000,-0.100000)" fill="#dcdcdc" stroke="none">
    <path d="M442 849 l-34 -30 -16 6 -17 6 11 -11 12 -12 18 10 c18 10 72 62 63
62 -2 0 -19 -14 -37 -31z" />
    <path d="M546 849 c10 -11 27 -25 37 -31 l19 -10 12 12 11 11 -17 -6 -17 -7
-26 26 c-31 31 -46 35 -19 5z" />
    <path d="M742 689 l-34 -30 -16 6 -17 6 11 -11 12 -12 18 10 c18 10 72 62 63
62 -2 0 -19 -14 -37 -31z" />
    <path d="M846 689 c10 -11 27 -25 37 -31 l19 -10 12 12 11 11 -17 -6 -17 -7
-26 26 c-31 31 -46 35 -19 5z" />
    <path d="M142 549 l-34 -30 -16 6 -17 6 11 -11 12 -12 18 10 c18 10 72 62 63
62 -2 0 -19 -14 -37 -31z" />
    <path d="M246 549 c10 -11 27 -25 37 -31 l19 -10 12 12 11 11 -17 -6 -17 -7
-26 26 c-31 31 -46 35 -19 5z" />
  </g>
  <g transform="translate(0.000000,100.000000) scale(0.100000,-0.100000)" fill="#575757" stroke="none">
    <path d="M530 925 c19 -19 36 -35 39 -35 3 0 -10 16 -29 35 -19 19 -36 35 -39
35 -3 0 10 -16 29 -35z" />
    <path d="M585 870 c3 -5 8 -10 11 -10 3 0 2 5 -1 10 -3 6 -8 10 -11 10 -3 0
-2 -4 1 -10z" />
    <path d="M830 765 c19 -19 36 -35 39 -35 3 0 -10 16 -29 35 -19 19 -36 35 -39
35 -3 0 10 -16 29 -35z" />
    <path d="M885 710 c3 -5 8 -10 11 -10 3 0 2 5 -1 10 -3 6 -8 10 -11 10 -3 0
-2 -4 1 -10z" />
    <path d="M240 616 c0 -2 8 -10 18 -17 l17 -14 -14 18 c-13 16 -21 21 -21 13z" />
    <path d="M285 570 c3 -5 8 -10 11 -10 3 0 2 5 -1 10 -3 6 -8 10 -11 10 -3 0
-2 -4 1 -10z" />
  </g>
  <g transform="translate(0.000000,100.000000) scale(0.100000,-0.100000)" fill="#b4b4b4" stroke="none">
    <path d="M404 818 l-7 -11 11 7 c12 7 16 16 8 16 -3 0 -8 -5 -12 -12z" />
    <path d="M585 820 c3 -5 8 -10 11 -10 3 0 2 5 -1 10 -3 6 -8 10 -11 10 -3 0
-2 -4 1 -10z" />
    <path d="M480 690 c0 -7 3 -10 7 -7 3 4 3 10 0 14 -4 3 -7 0 -7 -7z" />
    <path d="M510 690 c0 -7 3 -10 7 -7 3 4 3 10 0 14 -4 3 -7 0 -7 -7z" />
    <path d="M704 658 l-7 -11 11 7 c12 7 16 16 8 16 -3 0 -8 -5 -12 -12z" />
    <path d="M885 660 c3 -5 8 -10 11 -10 3 0 2 5 -1 10 -3 6 -8 10 -11 10 -3 0
-2 -4 1 -10z" />
    <path d="M780 530 c0 -7 3 -10 7 -7 3 4 3 10 0 14 -4 3 -7 0 -7 -7z" />
    <path d="M810 530 c0 -7 3 -10 7 -7 3 4 3 10 0 14 -4 3 -7 0 -7 -7z" />
    <path d="M104 518 l-7 -11 11 7 c7 4 12 9 12 12 0 8 -9 4 -16 -8z" />
    <path d="M285 520 c3 -5 8 -10 11 -10 3 0 2 5 -1 10 -3 6 -8 10 -11 10 -3 0
-2 -4 1 -10z" />
    <path d="M180 390 c0 -7 3 -10 7 -7 3 4 3 10 0 14 -4 3 -7 0 -7 -7z" />
    <path d="M210 390 c0 -7 3 -10 7 -7 3 4 3 10 0 14 -4 3 -7 0 -7 -7z" />
  </g>
  <g transform="translate(0.000000,100.000000) scale(0.100000,-0.100000)" fill="#202020" stroke="none">
    <path d="M525 870 c3 -5 11 -10 16 -10 6 0 7 5 4 10 -3 6 -11 10 -16 10 -6 0
-7 -4 -4 -10z" />
    <path d="M825 710 c3 -5 11 -10 16 -10 6 0 7 5 4 10 -3 6 -11 10 -16 10 -6 0
-7 -4 -4 -10z" />
    <path d="M225 570 c3 -5 11 -10 16 -10 6 0 7 5 4 10 -3 6 -11 10 -16 10 -6 0
-7 -4 -4 -10z" />
  </g>
  <g transform="translate(0.000000,100.000000) scale(0.100000,-0.100000)" fill="#e0e0e0" stroke="none">
    <path d="M525 870 c3 -5 8 -10 11 -10 3 0 2 5 -1 10 -3 6 -8 10 -11 10 -3 0
-2 -4 1 -10z" />
    <path d="M825 710 c3 -5 8 -10 11 -10 3 0 2 5 -1 10 -3 6 -8 10 -11 10 -3 0
-2 -4 1 -10z" />
    <path d="M225 570 c3 -5 8 -10 11 -10 3 0 2 5 -1 10 -3 6 -8 10 -11 10 -3 0
-2 -4 1 -10z" />
  </g>
  <g transform="translate(0.000000,100.000000) scale(0.100000,-0.100000)" fill="#bdbdbd" stroke="none">
    <path d="M380 830 c0 -7 3 -10 7 -7 3 4 3 10 0 14 -4 3 -7 0 -7 -7z" />
    <path d="M610 830 c0 -7 3 -10 7 -7 3 4 3 10 0 14 -4 3 -7 0 -7 -7z" />
    <path d="M680 670 c0 -7 3 -10 7 -7 3 4 3 10 0 14 -4 3 -7 0 -7 -7z" />
    <path d="M910 670 c0 -7 3 -10 7 -7 3 4 3 10 0 14 -4 3 -7 0 -7 -7z" />
    <path d="M80 530 c0 -7 3 -10 7 -7 3 4 3 10 0 14 -4 3 -7 0 -7 -7z" />
    <path d="M310 530 c0 -7 3 -10 7 -7 3 4 3 10 0 14 -4 3 -7 0 -7 -7z" />
  </g>
  <g transform="translate(0.000000,100.000000) scale(0.100000,-0.100000)" fill="#616161" stroke="none">
    <path d="M380 840 c0 -7 3 -10 7 -7 3 4 3 10 0 14 -4 3 -7 0 -7 -7z" />
    <path d="M610 840 c0 -7 3 -10 7 -7 3 4 3 10 0 14 -4 3 -7 0 -7 -7z" />
    <path d="M680 680 c0 -7 3 -10 7 -7 3 4 3 10 0 14 -4 3 -7 0 -7 -7z" />
    <path d="M910 680 c0 -7 3 -10 7 -7 3 4 3 10 0 14 -4 3 -7 0 -7 -7z" />
    <path d="M80 540 c0 -7 3 -10 7 -7 3 4 3 10 0 14 -4 3 -7 0 -7 -7z" />
    <path d="M310 540 c0 -7 3 -10 7 -7 3 4 3 10 0 14 -4 3 -7 0 -7 -7z" />
  </g>
  <g transform="translate(0.000000,100.000000) scale(0.100000,-0.100000)" fill="#989898" stroke="none" />
  <g transform="translate(0.000000,100.000000) scale(0.100000,-0.100000)" fill="#979797" stroke="none" />
  <g transform="translate(0.000000,100.000000) scale(0.100000,-0.100000)" fill="#000000" stroke="none" />
  <g transform="translate(0.000000,100.000000) scale(0.100000,-0.100000)" fill="#ff00ff" stroke="none" />
  <g transform="translate(0.000000,100.000000) scale(0.100000,-0.100000)" fill="#00ffff" stroke="none" />
  <g transform="translate(0.000000,100.000000) scale(0.100000,-0.100000)" fill="#ffffff" stroke="none" />
  <g transform="translate(0.000000,100.000000) scale(0.100000,-0.100000)" fill="#000000" stroke="none" />
  <g transform="translate(0.000000,100.000000) scale(0.100000,-0.100000)" fill="#000000" stroke="none" />
  <g transform="translate(0.000000,100.000000) scale(0.100000,-0.100000)" fill="#000000" stroke="none" />
  <g transform="translate(0.000000,100.000000) scale(0.100000,-0.100000)" fill="#000000" stroke="none" />
  <g transform="translate(0.000000,100.000000) scale(0.100000,-0.100000)" fill="#000000" stroke="none" />
  <g transform="translate(0.000000,100.000000) scale(0.100000,-0.100000)" fill="#000000" stroke="none" />
  <g transform="translate(0.000000,100.000000) scale(0.100000,-0.100000)" fill="#000000" stroke="none" />
  <g transform="translate(0.000000,100.000000) scale(0.100000,-0.100000)" fill="#000000" stroke="none" />
</svg>