<svg xmlns="http://www.w3.org/2000/svg" width="512" height="512" viewBox="0 0 512 512" version="1.1"><path d="M 439.329 1.934 C 430.955 4.948, 426.818 8.489, 399.922 35.660 L 374.343 61.500 372.208 66.161 C 371.034 68.724, 369.588 72.774, 368.995 75.161 L 367.916 79.500 368.208 126.827 L 368.500 174.155 372.235 177.577 L 375.971 181 439.081 181 L 502.191 181 504.960 179.364 C 506.483 178.465, 508.465 176.483, 509.364 174.960 L 511 172.191 511 89.978 L 511 7.765 507.118 3.882 L 503.235 -0 473.868 0.036 L 444.500 0.072 439.329 1.934 M 402.635 99.073 L 400 101.145 400 105 L 400 108.855 402.635 110.927 L 405.270 113 439.579 113 L 473.888 113 476.611 110.658 L 479.333 108.317 479.333 105 L 479.333 101.683 476.611 99.342 L 473.888 97 439.579 97 L 405.270 97 402.635 99.073 M 405 129.690 C 404.175 130.004, 402.712 130.947, 401.750 131.785 L 400 133.310 400 137.082 L 400 140.855 402.635 142.927 L 405.270 145 439.579 145 L 473.888 145 476.611 142.658 L 479.333 140.317 479.333 137.103 L 479.333 133.889 477.140 131.694 L 474.947 129.500 440.723 129.310 C 421.901 129.205, 405.825 129.376, 405 129.690" stroke="none" fill="#e8edf2" fill-rule="evenodd"/><path d="" stroke="none" fill="#000000" fill-rule="evenodd"/><path d="M 475.922 214.274 C 474.066 215.524, 471.492 218.112, 470.203 220.024 L 467.858 223.500 468.679 235.500 C 469.754 251.218, 469.484 270.496, 468.025 282.150 C 460.277 344.029, 426.298 398.658, 374 433.317 C 364.095 439.881, 336.982 454, 334.281 454 C 332.967 454, 332.664 453.028, 331.026 443.564 L 329.999 437.628 327.825 435.314 L 325.651 433 322.076 433.009 L 318.500 433.019 293 454.073 C 278.975 465.653, 266.938 475.860, 266.250 476.755 C 265.562 477.650, 265 480.027, 265 482.036 L 265 485.690 266.915 487.423 C 269.520 489.781, 329.358 512, 333.102 512 L 336.091 512 338.545 509.545 L 341 507.091 341 504.229 C 341 501.476, 339.380 491.196, 338.429 487.914 L 337.969 486.328 345.235 483.496 C 415.336 456.170, 469.484 397.596, 490.938 325.887 C 499.486 297.313, 502.968 261.514, 499.968 233.034 L 498.972 223.567 497.147 220.034 L 495.323 216.500 491.412 214.266 L 487.500 212.033 483.398 212.016 L 479.296 212 475.922 214.274 M 33.309 385.900 L 29.117 387.850 26.950 392.098 L 24.783 396.346 25.301 400.211 C 25.952 405.063, 28.201 408.542, 32.304 411.044 L 35.500 412.993 40.173 412.996 L 44.847 413 47.959 410.381 C 58.364 401.626, 54.499 386.394, 41.395 384.510 L 37.500 383.950 33.309 385.900 M 82.450 454.360 C 78.300 456.231, 74.389 461.112, 73.579 465.431 L 72.908 469.005 74.886 473.476 L 76.864 477.947 80.182 479.970 L 83.500 481.993 87.516 481.996 L 91.531 482 94.938 480.173 L 98.345 478.345 100.173 474.938 C 105.126 465.702, 99.722 454.965, 89.395 453.528 L 85.500 452.985 82.450 454.360" stroke="none" fill="#9be69d" fill-rule="evenodd"/><path d="M 84.119 385.028 C 82.259 385.453, 79.415 387.123, 77.800 388.739 L 74.862 391.676 74.117 395.088 C 70.548 411.415, 91.333 419.983, 100.005 405.759 L 101.993 402.500 101.995 399 C 102.001 389.620, 93.407 382.903, 84.119 385.028 M 36.016 454.107 L 32.532 454.843 29.409 458.250 L 26.287 461.658 25.598 465.331 L 24.908 469.005 26.861 473.418 L 28.813 477.831 31.463 479.568 C 32.921 480.523, 36.226 481.486, 38.807 481.708 L 43.500 482.111 46.696 480.103 C 50.684 477.597, 52.924 474.245, 53.666 469.670 L 54.241 466.129 52.148 461.814 C 49.020 455.365, 43.206 452.588, 36.016 454.107" stroke="none" fill="#ffe177" fill-rule="evenodd"/><path d="M 175.455 2.455 L 173 4.909 173 7.271 C 173 9.418, 174.374 18.364, 175.508 23.599 L 175.962 25.699 168.731 28.497 C 108.209 51.917, 57.180 101.439, 32.195 161 C 20.417 189.078, 14.569 216.078, 13.353 248 L 12.725 264.500 13.899 276.426 L 15.073 288.351 16.667 291.710 L 18.260 295.068 22.468 297.534 L 26.676 300 30.690 300 L 34.704 300 38.078 297.726 C 39.934 296.476, 42.511 293.888, 43.805 291.976 L 46.158 288.500 45.335 276 C 42.506 233.059, 48.908 198.043, 65.933 163.342 C 83.822 126.880, 108.408 99.289, 143.243 76.582 C 153.536 69.873, 178.447 57.574, 180.302 58.286 L 181.608 58.787 182.823 66.599 L 184.037 74.411 186.193 76.705 L 188.349 79 191.937 79 L 195.526 79 221.513 57.559 L 247.500 36.118 248.739 33.094 L 249.977 30.070 249.033 27.587 C 248.514 26.222, 247.057 24.433, 245.795 23.613 C 241.819 21.029, 184.021 0, 180.893 0 L 177.909 0 175.455 2.455 M 422.186 129.748 C 431.363 129.913, 446.663 129.913, 456.186 129.749 C 465.709 129.584, 458.200 129.449, 439.500 129.449 C 420.800 129.449, 413.009 129.583, 422.186 129.748" stroke="none" fill="#f1b8bb" fill-rule="evenodd"/><path d="M 175.455 2.455 L 173 4.909 173 7.271 C 173 9.418, 174.374 18.364, 175.508 23.599 L 175.962 25.699 168.731 28.497 C 108.209 51.917, 57.180 101.439, 32.195 161 C 20.417 189.078, 14.569 216.078, 13.353 248 L 12.725 264.500 13.899 276.426 L 15.073 288.351 16.667 291.710 L 18.260 295.068 22.468 297.534 L 26.676 300 30.690 300 L 34.704 300 38.078 297.726 C 39.934 296.476, 42.511 293.888, 43.805 291.976 L 46.158 288.500 45.335 276 C 42.506 233.059, 48.908 198.043, 65.933 163.342 C 83.822 126.880, 108.408 99.289, 143.243 76.582 C 153.536 69.873, 178.447 57.574, 180.302 58.286 L 181.608 58.787 182.823 66.599 L 184.037 74.411 186.193 76.705 L 188.349 79 191.937 79 L 195.526 79 221.513 57.559 L 247.500 36.118 248.739 33.094 L 249.977 30.070 249.033 27.587 C 248.514 26.222, 247.057 24.433, 245.795 23.613 C 241.819 21.029, 184.021 0, 180.893 0 L 177.909 0 175.455 2.455 M 422.186 129.748 C 431.363 129.913, 446.663 129.913, 456.186 129.749 C 465.709 129.584, 458.200 129.449, 439.500 129.449 C 420.800 129.449, 413.009 129.583, 422.186 129.748" stroke="none" fill="#f1b8bb" fill-rule="evenodd"/><path d="M 404.017 98.266 C 401.022 99.805, 399.466 103.737, 400.392 107.425 L 401.071 110.132 404.622 111.616 L 408.173 113.099 441.676 112.800 L 475.179 112.500 477.089 110.139 C 479.529 107.124, 479.529 102.876, 477.089 99.861 L 475.179 97.500 440.839 97.244 L 406.500 96.989 404.017 98.266 M 402 132 L 400 134 400 136.889 C 400 138.478, 400.860 140.841, 401.911 142.139 L 403.821 144.500 438.730 144.786 L 473.638 145.073 476.319 142.964 L 479 140.855 479 137.427 L 479 134 477 132 L 475 130 439.500 130 L 404 130 402 132 M 242.388 147.942 C 241.227 148.432, 239.384 149.968, 238.294 151.354 L 236.311 153.874 234.619 168.173 C 233.689 176.038, 232.606 182.757, 232.214 183.105 C 231.821 183.452, 229.310 184.552, 226.634 185.549 C 223.957 186.545, 218.191 189.754, 213.820 192.680 C 209.449 195.606, 205.649 198, 205.376 198 C 205.103 198, 199.084 195.525, 192 192.500 C 178.390 186.688, 176.634 186.299, 172.511 188.177 L 169.927 189.354 162.964 201.413 C 155.723 213.952, 155.053 216.291, 157.414 220.800 L 158.828 223.500 170.347 232 L 181.866 240.500 181.216 243 C 180.374 246.238, 180.372 265.750, 181.213 269 L 181.860 271.500 169.840 280.422 L 157.820 289.343 156.910 291.737 C 155.228 296.162, 155.972 298.479, 162.964 310.587 L 169.927 322.646 172.511 323.823 C 176.634 325.701, 178.390 325.312, 192 319.500 C 199.084 316.475, 205.184 314, 205.556 314 C 205.928 314, 208.318 315.531, 210.868 317.403 C 215.623 320.893, 229.030 328, 230.860 328 C 232.595 328, 232.899 329.288, 234.644 344.038 L 236.337 358.346 239.086 361.423 L 241.836 364.500 257 364.500 L 272.164 364.500 274.954 361.378 L 277.744 358.255 278.953 347.878 C 279.618 342.170, 280.464 335.546, 280.831 333.158 L 281.500 328.816 287.396 326.417 C 290.640 325.098, 296.615 321.765, 300.676 319.010 C 304.737 316.254, 308.409 314, 308.836 314 C 309.263 314, 315.351 316.475, 322.365 319.500 C 329.380 322.525, 336.035 325, 337.155 325 C 338.275 325, 340.454 324.254, 341.996 323.343 L 344.801 321.687 351.400 310.030 C 358.064 298.261, 358.742 296.082, 357.090 291.737 L 356.180 289.343 344.183 280.422 L 332.185 271.500 332.842 268.500 C 333.204 266.850, 333.500 261.225, 333.500 256 C 333.500 250.775, 333.204 245.150, 332.842 243.500 L 332.185 240.500 344.183 231.578 L 356.180 222.657 357.090 220.263 C 358.742 215.918, 358.064 213.739, 351.400 201.970 L 344.801 190.313 341.996 188.657 C 340.454 187.746, 338.275 187, 337.155 187 C 336.035 187, 329.380 189.475, 322.365 192.500 C 315.351 195.525, 309.263 198, 308.836 198 C 308.409 198, 304.737 195.746, 300.676 192.990 C 296.615 190.235, 290.640 186.902, 287.396 185.583 L 281.500 183.184 280.831 178.842 C 280.464 176.454, 279.618 169.830, 278.953 164.122 L 277.744 153.745 274.956 150.622 L 272.169 147.500 258.335 147.276 C 250.726 147.152, 243.550 147.452, 242.388 147.942 M 245.286 218.394 C 234.895 221.781, 225.855 229.811, 221.160 239.825 L 218.500 245.500 218.500 256 L 218.500 266.500 221.097 272 C 222.526 275.025, 225.817 279.849, 228.412 282.719 L 233.130 287.939 239.794 291.219 L 246.458 294.500 257 294.500 L 267.542 294.500 274.126 291.259 L 280.710 288.017 285.425 282.977 C 288.018 280.204, 291.346 275.363, 292.820 272.218 L 295.500 266.500 295.500 256 L 295.500 245.500 292.820 239.782 C 291.346 236.637, 288.018 231.796, 285.425 229.023 L 280.710 223.983 274.207 220.781 L 267.703 217.579 258.602 217.300 L 249.500 217.021 245.286 218.394 M 10.223 366.119 L 5.946 368.236 3.473 372.456 L 1 376.676 1 398.273 L 1 419.870 2.064 422.685 C 3.454 426.365, 7.503 430.552, 11.122 432.051 L 14.009 433.246 9.978 435.241 L 5.946 437.236 3.473 441.456 L 1 445.676 1 467.370 L 1 489.064 2.364 492.329 C 4.132 496.560, 9.077 500.674, 13.982 501.995 L 17.873 503.043 104.760 502.771 L 191.647 502.500 195.912 499.677 L 200.177 496.855 202.142 492.411 L 204.108 487.967 203.804 466.074 L 203.500 444.180 200.475 440.445 C 198.811 438.391, 196.082 435.977, 194.410 435.080 L 191.370 433.450 195.739 430.730 L 200.108 428.010 202.108 423.488 L 204.108 418.967 203.804 397.074 L 203.500 375.180 200.475 371.445 C 198.811 369.391, 195.893 366.876, 193.991 365.855 L 190.531 364 102.516 364.001 L 14.500 364.002 10.223 366.119 M 33.309 385.900 L 29.117 387.850 26.950 392.098 L 24.783 396.346 25.301 400.211 C 25.952 405.063, 28.201 408.542, 32.304 411.044 L 35.500 412.993 40.173 412.996 L 44.847 413 47.959 410.381 C 58.364 401.626, 54.499 386.394, 41.395 384.510 L 37.500 383.950 33.309 385.900 M 81.301 386.026 L 77.102 388.159 74.930 392.644 L 72.759 397.129 73.354 400.791 C 74.081 405.274, 76.667 408.890, 80.930 411.386 L 84.152 413.273 88 413.273 L 91.848 413.273 95.139 411.351 C 96.949 410.294, 99.303 407.933, 100.371 406.104 L 102.313 402.779 102.245 398.246 L 102.176 393.713 100.276 391.168 C 97.288 387.165, 93.656 384.894, 89.413 384.374 L 85.500 383.894 81.301 386.026 M 33.207 454.939 L 28.914 456.941 26.849 461.609 L 24.783 466.278 25.346 469.745 C 26.077 474.248, 28.335 477.609, 32.304 480.103 L 35.500 482.111 40.758 481.723 L 46.015 481.334 48.603 478.917 C 58.248 469.907, 53.884 454.838, 41.203 453.368 L 37.500 452.938 33.207 454.939 M 82.450 454.360 C 78.300 456.231, 74.389 461.112, 73.579 465.431 L 72.908 469.005 74.886 473.476 L 76.864 477.947 80.182 479.970 L 83.500 481.993 87.516 481.996 L 91.531 482 94.938 480.173 L 98.345 478.345 100.173 474.938 C 105.126 465.702, 99.722 454.965, 89.395 453.528 L 85.500 452.985 82.450 454.360" stroke="none" fill="#8393a2" fill-rule="evenodd"/></svg>