<svg xmlns="http://www.w3.org/2000/svg" width="512" height="512" viewBox="0 0 512 512" version="1.1"><path d="M 52.999 261.250 C 51.187 262.488, 48.870 265.068, 47.852 266.984 L 46 270.469 46 274.348 L 46 278.228 48.184 282.114 L 50.368 286 54.753 288.122 L 59.137 290.245 63.232 289.696 C 67.991 289.057, 71.587 286.658, 74.750 282.010 L 77 278.704 76.984 274.602 L 76.967 270.500 74.734 266.604 L 72.500 262.708 69.016 260.854 L 65.531 259 60.913 259 L 56.296 259 52.999 261.250 M 182.479 408 C 182.479 457.225, 182.601 477.362, 182.750 452.750 C 182.899 428.137, 182.899 387.862, 182.750 363.250 C 182.601 338.637, 182.479 358.775, 182.479 408 M 38 432.500 L 38 497 61.500 497 L 85 497 85 432.500 L 85 368 61.500 368 L 38 368 38 432.500" stroke="none" fill="#ff4756" fill-rule="evenodd"/><path d="M 163.458 215.730 C 160.170 222.658, 160.591 232.337, 164.405 237.531 L 165.851 239.500 168.948 236.542 C 170.651 234.914, 172.543 231.920, 173.152 229.888 L 174.259 226.193 173.603 222.698 C 172.895 218.923, 169.942 214.574, 167.027 213.014 L 165.208 212.041 163.458 215.730 M 166 408 L 166 497 174 497 L 182 497 182 408 L 182 319 174 319 L 166 319 166 408" stroke="none" fill="#ffa85d" fill-rule="evenodd"/><path d="M 248.241 114.995 C 246.448 116.088, 244.088 118.448, 242.995 120.241 L 241.007 123.500 241.007 128 L 241.007 132.500 242.995 135.759 C 244.088 137.552, 246.448 139.912, 248.241 141.005 L 251.500 142.993 256 142.993 L 260.500 142.993 263.759 141.005 C 265.552 139.912, 267.912 137.552, 269.005 135.759 L 270.993 132.500 270.993 128 L 270.993 123.500 269.005 120.241 C 267.912 118.448, 265.552 116.088, 263.759 114.995 L 260.500 113.007 256 113.007 L 251.500 113.007 248.241 114.995 M 233 359 L 233 497 256 497 L 279 497 279 359 L 279 221 256 221 L 233 221 233 359" stroke="none" fill="#ffd301" fill-rule="evenodd"/><path d="M 348.619 162.034 C 342.485 163.871, 337.998 170.282, 338.004 177.200 L 338.007 181.500 339.995 184.759 C 341.088 186.552, 343.448 188.912, 345.241 190.005 L 348.500 191.993 353.382 191.996 L 358.264 192 361.663 189.899 L 365.062 187.798 367.141 183.723 L 369.220 179.648 368.743 175.415 L 368.266 171.183 365.982 167.975 L 363.698 164.767 359.599 162.905 C 355.141 160.881, 353.031 160.713, 348.619 162.034 M 342.843 265.021 C 341.545 268.745, 339.332 270, 334.066 270 L 330 270 330 383.500 L 330 497 353.500 497 L 377 497 377 383.500 L 377 270 372.723 270 L 368.445 270 366.337 268.523 C 365.177 267.711, 363.944 265.911, 363.595 264.523 L 362.962 262 353.429 262 L 343.896 262 342.843 265.021" stroke="none" fill="#00ba66" fill-rule="evenodd"/><path d="M 444.500 16.357 C 435.986 20.296, 432.656 30.057, 437.118 37.996 L 439.236 41.764 443.214 44 L 447.192 46.236 451.968 45.777 L 456.744 45.318 459.749 43.179 C 463.523 40.491, 466 35.368, 466 30.247 L 466 26.296 463.750 22.990 C 462.512 21.172, 460.314 18.806, 458.864 17.732 L 456.228 15.780 451.864 15.375 L 447.500 14.969 444.500 16.357 M 427 310 L 427 497 450.483 497 L 473.967 497 474.233 413.105 L 474.500 329.209 476.405 327.105 C 477.453 325.947, 479.140 325, 480.155 325 L 482 325 481.994 315.250 L 481.987 305.500 478.985 303.791 C 477.333 302.852, 475.536 300.910, 474.991 299.476 L 474 296.870 474 209.935 L 474 123 450.500 123 L 427 123 427 310" stroke="none" fill="#23a8fe" fill-rule="evenodd"/><path d="M 254.250 143.689 C 255.213 143.941, 256.788 143.941, 257.750 143.689 C 258.712 143.438, 257.925 143.232, 256 143.232 C 254.075 143.232, 253.287 143.438, 254.250 143.689 M 154.500 210.684 C 150.606 211.754, 146.723 215.372, 144.797 219.725 L 142.847 224.134 143.517 228.102 L 144.188 232.069 146.797 235.171 C 150.931 240.083, 159.826 242.664, 163.844 240.117 L 165.189 239.265 163.387 235.883 L 161.586 232.500 161.543 226 L 161.500 219.500 163.381 215.714 C 164.415 213.632, 165.015 211.682, 164.713 211.380 C 163.880 210.547, 156.765 210.062, 154.500 210.684 M 232.486 359 C 232.486 435.175, 232.605 466.337, 232.750 428.250 C 232.895 390.162, 232.895 327.837, 232.750 289.750 C 232.605 251.662, 232.486 282.825, 232.486 359 M 279.486 359 C 279.486 435.175, 279.605 466.337, 279.750 428.250 C 279.895 390.162, 279.895 327.837, 279.750 289.750 C 279.605 251.662, 279.486 282.825, 279.486 359 M 135 408 L 135 497 150.500 497 L 166 497 166 408 L 166 319 150.500 319 L 135 319 135 408" stroke="none" fill="#f9a63a" fill-rule="evenodd"/><path d="M 254.250 143.689 C 255.213 143.941, 256.788 143.941, 257.750 143.689 C 258.712 143.438, 257.925 143.232, 256 143.232 C 254.075 143.232, 253.287 143.438, 254.250 143.689 M 154.500 210.684 C 150.606 211.754, 146.723 215.372, 144.797 219.725 L 142.847 224.134 143.517 228.102 L 144.188 232.069 146.797 235.171 C 150.931 240.083, 159.826 242.664, 163.844 240.117 L 165.189 239.265 163.387 235.883 L 161.586 232.500 161.543 226 L 161.500 219.500 163.381 215.714 C 164.415 213.632, 165.015 211.682, 164.713 211.380 C 163.880 210.547, 156.765 210.062, 154.500 210.684 M 232.486 359 C 232.486 435.175, 232.605 466.337, 232.750 428.250 C 232.895 390.162, 232.895 327.837, 232.750 289.750 C 232.605 251.662, 232.486 282.825, 232.486 359 M 279.486 359 C 279.486 435.175, 279.605 466.337, 279.750 428.250 C 279.895 390.162, 279.895 327.837, 279.750 289.750 C 279.605 251.662, 279.486 282.825, 279.486 359 M 135 408 L 135 497 150.500 497 L 166 497 166 408 L 166 319 150.500 319 L 135 319 135 408" stroke="none" fill="#f9a63a" fill-rule="evenodd"/><path d="M 437.460 2.859 L 431.419 5.717 427.264 10.438 L 423.108 15.159 421.483 20.053 C 418.462 29.148, 419.695 40.324, 424.502 47.407 C 425.876 49.432, 427 51.296, 427 51.549 C 427 51.802, 412.839 73.248, 395.532 99.206 L 364.063 146.402 354.282 146.454 L 344.500 146.505 340 148.863 C 337.525 150.159, 334.249 152.393, 332.719 153.827 L 329.939 156.433 308.219 145.604 L 286.500 134.774 286.453 127.137 L 286.405 119.500 283.789 114.500 C 280.435 108.089, 274.824 102.702, 268.500 99.820 L 263.500 97.541 256 97.552 L 248.500 97.562 243.286 99.889 L 238.072 102.215 233.683 106.908 L 229.293 111.601 227.146 117.338 L 225 123.075 225.033 128.288 L 225.065 133.500 226.986 139 L 228.907 144.500 201.824 171.636 L 174.741 198.773 170.259 196.790 L 165.776 194.807 159.071 194.766 L 152.366 194.724 146.133 197.521 L 139.899 200.318 135.542 205.165 L 131.184 210.012 129.592 214.684 L 128 219.356 128 225.674 L 128 231.991 106.250 242.854 L 84.500 253.716 82 251.247 C 80.625 249.889, 77.025 247.594, 74 246.146 L 68.500 243.515 61.320 243.548 L 54.140 243.581 47.358 247.040 L 40.575 250.500 36.875 255.401 C 32.319 261.436, 30.451 267.566, 30.658 275.802 L 30.816 282.104 33.459 287.505 L 36.101 292.905 41.056 297.361 L 46.012 301.816 50.684 303.408 L 55.356 305 61.928 304.999 L 68.500 304.998 74.540 302.141 L 80.581 299.283 84.736 294.562 L 88.892 289.841 90.527 284.919 L 92.162 279.997 92.133 273.977 L 92.104 267.957 113.931 257.035 L 135.757 246.113 138.073 248.578 C 139.347 249.934, 142.873 252.259, 145.909 253.744 L 151.429 256.444 158.542 256.444 L 165.655 256.444 172.271 253.187 L 178.887 249.930 181.965 246.045 C 186.169 240.736, 189.057 233.865, 189.685 227.675 L 190.210 222.500 188.036 216.076 L 185.862 209.652 213.037 182.463 L 240.213 155.273 245.117 157.137 L 250.021 159 255.885 159 C 263.126 159, 268.761 157.080, 275.036 152.474 L 279.857 148.935 301.179 159.582 L 322.500 170.230 322.567 177.365 L 322.634 184.500 325.348 190.161 L 328.061 195.823 332.158 199.524 C 334.412 201.560, 338.335 204.180, 340.878 205.348 L 345.500 207.470 353.500 207.455 L 361.500 207.440 366.236 205.117 C 372.266 202.158, 378.233 196.199, 381.177 190.195 L 383.480 185.500 383.832 177.500 L 384.185 169.500 380.564 162.553 L 376.943 155.607 408.722 107.888 L 440.500 60.169 443.500 60.835 C 445.150 61.201, 448.975 61.474, 452 61.443 L 457.500 61.385 463.086 58.823 C 470.178 55.570, 475.567 50.188, 478.797 43.133 L 481.333 37.592 481.333 30.397 L 481.333 23.202 478.616 17.648 L 475.899 12.095 470.944 7.639 L 465.988 3.184 461.316 1.592 L 456.644 0 450.072 0.001 L 443.500 0.002 437.460 2.859 M 444.500 16.357 C 435.986 20.296, 432.656 30.057, 437.118 37.996 L 439.236 41.764 443.214 44 L 447.192 46.236 451.968 45.777 L 456.744 45.318 459.749 43.179 C 463.523 40.491, 466 35.368, 466 30.247 L 466 26.296 463.750 22.990 C 462.512 21.172, 460.314 18.806, 458.864 17.732 L 456.228 15.780 451.864 15.375 L 447.500 14.969 444.500 16.357 M 419 109.729 L 415.500 111.500 413.250 115.962 L 411 120.424 411 308.712 L 411 497 402.020 497 L 393.041 497 392.770 381.250 L 392.500 265.500 390.466 262 L 388.432 258.500 384.966 256.752 L 381.500 255.003 374.705 255.002 L 367.909 255 365.343 257.566 L 362.777 260.133 363.391 263.316 C 363.729 265.067, 364.955 267.288, 366.114 268.250 L 368.222 270 372.611 270 L 377 270 377 383.500 L 377 497 353.500 497 L 330 497 330 383.500 L 330 270 334.066 270 C 339.362 270, 341.545 268.744, 342.874 264.931 L 343.959 261.820 342.516 259.031 C 340.677 255.474, 339.331 255, 331.066 255 L 324.296 255 320.898 257.270 C 319.029 258.518, 316.713 261.106, 315.752 263.020 L 314.003 266.500 314.002 381.750 L 314 497 304.500 497 L 295 497 295 356.368 L 295 215.736 292.903 212.344 C 291.750 210.478, 289.523 208.287, 287.953 207.476 L 285.099 206 255.800 206.004 L 226.500 206.007 223.420 207.886 C 221.726 208.919, 219.588 211.348, 218.670 213.283 L 217 216.802 217 356.901 L 217 497 207.500 497 L 198 497 198 405.886 L 198 314.772 195.906 311.046 C 194.754 308.997, 192.547 306.573, 191.001 305.660 L 188.191 304 158.846 304.004 L 129.500 304.007 126.304 305.956 C 124.547 307.028, 122.297 309.143, 121.304 310.658 L 119.500 313.411 119.225 405.205 L 118.950 497 110.002 497 L 101.054 497 100.777 429.750 L 100.500 362.500 98.522 359.229 L 96.544 355.958 92.456 353.979 L 88.369 352 61.434 352.022 L 34.500 352.044 30.216 353.988 L 25.932 355.932 23.988 360.216 L 22.044 364.500 22.022 430.750 L 22 497 16.434 497 C 9.752 497, 7.667 497.976, 6.058 501.859 L 4.842 504.795 6.384 507.776 C 7.232 509.416, 8.654 511.037, 9.545 511.379 C 10.435 511.720, 121.406 512, 256.148 512 L 501.131 512 502.929 511.038 C 503.917 510.509, 505.273 508.755, 505.942 507.141 L 507.158 504.205 505.616 501.224 C 503.729 497.576, 502.340 497, 495.418 497 L 490 497 490 413.423 L 490 329.846 487.046 326.892 L 484.093 323.939 481.296 324.591 C 479.758 324.949, 477.600 326.101, 476.500 327.149 L 474.500 329.055 474.233 413.028 L 473.967 497 450.483 497 L 427 497 427 310 L 427 123 450.484 123 L 473.968 123 474.234 211.587 L 474.500 300.174 477.306 302.587 C 480.687 305.495, 483.961 305.662, 487.139 303.089 L 489.500 301.177 489.757 210.339 L 490.014 119.500 488.257 116.071 C 487.291 114.185, 485.230 111.710, 483.679 110.571 L 480.857 108.500 451.679 108.229 L 422.500 107.957 419 109.729 M 252.395 112.986 C 246.057 114.419, 241.547 119.569, 240.481 126.591 L 239.887 130.500 242.193 135 L 244.500 139.500 248.962 141.750 C 251.416 142.988, 254.583 144, 256 144 C 257.417 144, 260.584 142.988, 263.038 141.750 L 267.500 139.500 269.750 135.038 C 272.517 129.551, 272.571 126.801, 270.015 121.566 L 268.030 117.500 264.765 115.370 C 260.885 112.839, 256.653 112.023, 252.395 112.986 M 348.619 162.034 C 342.485 163.871, 337.998 170.282, 338.004 177.200 L 338.007 181.500 339.995 184.759 C 341.088 186.552, 343.448 188.912, 345.241 190.005 L 348.500 191.993 353.382 191.996 L 358.264 192 361.663 189.899 L 365.062 187.798 367.141 183.723 L 369.220 179.648 368.743 175.415 L 368.266 171.183 365.982 167.975 L 363.698 164.767 359.599 162.905 C 355.141 160.881, 353.031 160.713, 348.619 162.034 M 150.990 212.250 C 146.342 215.413, 143.943 219.009, 143.304 223.768 L 142.755 227.863 144.878 232.247 L 147 236.632 150.886 238.816 L 154.772 241 159.136 240.996 L 163.500 240.993 166.759 239.005 C 168.552 237.912, 170.912 235.552, 172.005 233.759 L 173.993 230.500 173.996 225.482 L 174 220.464 171.561 216.875 C 168.643 212.581, 163.645 210, 158.247 210 L 154.296 210 150.990 212.250 M 232 359 L 232 497 256 497 L 280 497 280 359 L 280 221 256 221 L 232 221 232 359 M 52.999 261.250 C 51.187 262.488, 48.870 265.068, 47.852 266.984 L 46 270.469 46 274.348 L 46 278.228 48.184 282.114 L 50.368 286 54.753 288.122 L 59.137 290.245 63.232 289.696 C 67.991 289.057, 71.587 286.658, 74.750 282.010 L 77 278.704 76.984 274.602 L 76.967 270.500 74.734 266.604 L 72.500 262.708 69.016 260.854 L 65.531 259 60.913 259 L 56.296 259 52.999 261.250 M 135 408 L 135 497 159 497 L 183 497 183 408 L 183 319 159 319 L 135 319 135 408 M 38 432.500 L 38 497 61.500 497 L 85 497 85 432.500 L 85 368 61.500 368 L 38 368 38 432.500" stroke="none" fill="#041910" fill-rule="evenodd"/></svg>