<svg xmlns="http://www.w3.org/2000/svg" width="512" height="512" viewBox="0 0 512 512" version="1.1"><path d="M 232 36 L 232 64 260 64 L 288 64 288 36 L 288 8 260 8 L 232 8 232 36 M 128 168 L 128 200 160 200 L 192 200 192 168 L 192 136 160 136 L 128 136 128 168 M 356 168 L 356 188 376 188 L 396 188 396 168 L 396 148 376 148 L 356 148 356 168 M 300 240 L 300 260 320 260 L 340 260 340 240 L 340 220 320 220 L 300 220 300 240" stroke="none" fill="#d9575d" fill-rule="evenodd"/><path d="" stroke="none" fill="#000000" fill-rule="evenodd"/><path d="M 336 80 L 336 112 368 112 L 400 112 400 80 L 400 48 368 48 L 336 48 336 80 M 156 80 L 156 100 176 100 L 196 100 196 80 L 196 60 176 60 L 156 60 156 80 M 196 256 L 196 276 216 276 L 236 276 236 256 L 236 236 216 236 L 196 236 196 256" stroke="none" fill="#1f9981" fill-rule="evenodd"/><path d="M 40 52 L 40 88 76 88 L 112 88 112 52 L 112 16 76 16 L 40 16 40 52 M 444 40 L 444 60 464 60 L 484 60 484 40 L 484 20 464 20 L 444 20 444 40 M 252 152 L 252 172 272 172 L 292 172 292 152 L 292 132 272 132 L 252 132 252 152" stroke="none" fill="#f2b230" fill-rule="evenodd"/><path d="M 15.948 95.564 C 12.402 98.076, 9.629 100.602, 9.787 101.176 C 9.944 101.751, 37.787 143.313, 71.659 193.537 L 133.244 284.854 140.122 280.280 C 143.905 277.765, 147 275.605, 147 275.481 C 147 275.127, 23.923 92.589, 23.117 91.748 C 22.720 91.334, 19.494 93.052, 15.948 95.564 M 427.647 182.351 C 393.813 232.543, 365.988 274.118, 365.815 274.739 C 365.421 276.151, 378.146 285.280, 379.076 284.252 C 379.721 283.539, 497.828 108.379, 501.355 102.905 L 503.026 100.311 496.095 95.702 L 489.163 91.093 427.647 182.351 M 146.174 298.314 L 144 300.629 144 385.955 L 144 471.280 136 482 L 128 492.720 128 496.186 L 128 499.651 130.314 501.826 L 132.629 504 256.140 504 L 379.651 504 381.826 501.686 L 384 499.371 384 496.045 L 384 492.720 376 482 L 368 471.280 368 385.814 L 368 300.349 365.686 298.174 L 363.371 296 255.860 296 L 148.349 296 146.174 298.314 M 160 384 L 160 456 256 456 L 352 456 352 384 L 352 312 256 312 L 160 312 160 384 M 248 354 L 248 380 234.500 380 C 227.075 380, 221 380.199, 221 380.443 C 221 381.590, 255.182 429.500, 256 429.500 C 256.818 429.500, 291 381.590, 291 380.443 C 291 380.199, 284.925 380, 277.500 380 L 264 380 264 354 L 264 328 256 328 L 248 328 248 354" stroke="none" fill="#447584" fill-rule="evenodd"/><path d="M 160 384 L 160 456 256 456 L 352 456 352 384 L 352 312 256 312 L 160 312 160 384 M 248 354 L 248 380 234.500 380 C 227.075 380, 221 380.199, 221 380.443 C 221 381.590, 255.182 429.500, 256 429.500 C 256.818 429.500, 291 381.590, 291 380.443 C 291 380.199, 284.925 380, 277.500 380 L 264 380 264 354 L 264 328 256 328 L 248 328 248 354" stroke="none" fill="#b3cae6" fill-rule="evenodd"/></svg>