<svg width="100.000000pt" height="100.000000pt" viewBox="0 0 100.000000 100.000000" xmlns="http://www.w3.org/2000/svg">
  <g transform="translate(0.000000,100.000000) scale(0.100000,-0.100000)" fill="#fefefe" stroke="none">
    <path d="M0 500 l0 -500 13 0 12 0 0 500 0 500 -12 0 -13 0 0 -500z" />
    <path d="M658 895 l4 -105 -21 0 -21 0 0 85 0 85 -280 0 -280 0 0 -460 0 -460
280 0 280 0 0 85 0 85 21 0 21 0 -4 -105 -4 -105 173 0 173 0 0 500 0 500
-173 0 -173 0 4 -105z m-148 -213 c0 -4 -31 -39 -70 -77 -38 -38 -70 -75 -70
-82 l0 -13 300 0 300 0 0 -10 0 -10 -300 0 -300 0 0 -12 c0 -7 32 -45 72 -85
40 -40 69 -76 65 -80 -4 -4 -51 37 -105 90 l-97 97 95 95 c89 89 110 106 110
87z" />
  </g>
  <g transform="translate(0.000000,100.000000) scale(0.100000,-0.100000)" fill="#000000" stroke="none">
    <path d="M16 984 c-8 -20 -8 -948 0 -968 l6 -16 318 0 318 0 6 16 c3 9 6 58 6
110 l0 94 -30 0 -30 0 0 -85 0 -85 -270 0 -270 0 0 450 0 450 270 0 270 0 0
-85 0 -85 30 0 30 0 0 94 c0 52 -3 101 -6 110 l-6 16 -318 0 -318 0 -6 -16z" />
    <path d="M385 600 l-100 -100 100 -100 100 -100 17 0 18 0 0 17 c0 10 -33 50
-72 90 l-72 73 302 0 302 0 0 20 0 20 -302 0 -302 0 72 73 c39 40 72 80 72 90
l0 17 -18 0 -17 0 -100 -100z" />
  </g>
  <g transform="translate(0.000000,100.000000) scale(0.100000,-0.100000)" fill="#eeeeee" stroke="none">
    <path d="M17 983 c-10 -9 -9 -961 1 -966 4 -3 7 215 7 484 0 269 0 489 -1 489
0 0 -4 -3 -7 -7z" />
    <path d="M660 882 l5 -107 3 99 c1 55 -1 103 -5 107 -4 5 -6 -40 -3 -99z" />
    <path d="M60 500 l0 -460 280 0 280 0 -2 93 -2 92 -3 -87 -4 -88 -269 0 -270
0 0 450 0 450 270 0 269 0 4 -87 3 -88 2 93 2 92 -280 0 -280 0 0 -460z" />
    <path d="M660 118 c-3 -59 -1 -104 3 -99 4 4 6 52 5 107 l-3 99 -5 -107z" />
  </g>
  <g transform="translate(0.000000,100.000000) scale(0.100000,-0.100000)" fill="#a8a8a8" stroke="none">
    <path d="M645 990 c3 -5 8 -10 11 -10 2 0 4 5 4 10 0 6 -5 10 -11 10 -5 0 -7
-4 -4 -10z" />
    <path d="M400 613 l-85 -88 88 85 c48 46 87 86 87 87 0 8 -11 -3 -90 -84z" />
    <path d="M294 509 l-7 -11 104 -102 104 -101 -99 101 -98 102 6 11 c4 6 5 11
2 11 -3 0 -8 -5 -12 -11z" />
    <path d="M20 10 c0 -5 5 -10 11 -10 5 0 7 5 4 10 -3 6 -8 10 -11 10 -2 0 -4
-4 -4 -10z" />
    <path d="M645 10 c-3 -5 -1 -10 4 -10 6 0 11 5 11 10 0 6 -2 10 -4 10 -3 0 -8
-4 -11 -10z" />
  </g>
  <g transform="translate(0.000000,100.000000) scale(0.100000,-0.100000)" fill="#a2a2a2" stroke="none">
    <path d="M445 598 l-70 -73 73 70 c67 64 77 75 69 75 -1 0 -34 -33 -72 -72z" />
    <path d="M304 518 l-7 -11 11 7 c12 7 16 16 8 16 -3 0 -8 -5 -12 -12z" />
    <path d="M305 480 c3 -5 8 -10 11 -10 3 0 2 5 -1 10 -3 6 -8 10 -11 10 -3 0
-2 -4 1 -10z" />
    <path d="M445 400 c38 -38 72 -70 74 -70 3 0 -26 32 -64 70 -38 39 -72 70 -74
70 -3 0 26 -31 64 -70z" />
  </g>
  <g transform="translate(0.000000,100.000000) scale(0.100000,-0.100000)" fill="#9b9b9b" stroke="none">
    <path d="M20 989 c0 -5 5 -7 10 -4 6 3 10 8 10 11 0 2 -4 4 -10 4 -5 0 -10 -5
-10 -11z" />
    <path d="M314 528 l-7 -11 11 7 c7 4 12 9 12 12 0 8 -9 4 -16 -8z" />
    <path d="M374 528 l-7 -11 11 7 c7 4 12 9 12 12 0 8 -9 4 -16 -8z" />
    <path d="M375 470 c3 -5 8 -10 11 -10 3 0 2 5 -1 10 -3 6 -8 10 -11 10 -3 0
-2 -4 1 -10z" />
  </g>
  <g transform="translate(0.000000,100.000000) scale(0.100000,-0.100000)" fill="#0f0f0f" stroke="none">
    <path d="M645 990 c3 -5 8 -10 11 -10 3 0 2 5 -1 10 -3 6 -8 10 -11 10 -3 0
-2 -4 1 -10z" />
    <path d="M25 10 c3 -5 8 -10 11 -10 3 0 2 5 -1 10 -3 6 -8 10 -11 10 -3 0 -2
-4 1 -10z" />
    <path d="M644 8 l-7 -11 11 7 c7 4 12 9 12 12 0 8 -9 4 -16 -8z" />
  </g>
  <g transform="translate(0.000000,100.000000) scale(0.100000,-0.100000)" fill="#dfdfdf" stroke="none" />
  <g transform="translate(0.000000,100.000000) scale(0.100000,-0.100000)" fill="#b7b7b7" stroke="none">
    <path d="M483 693 c4 -3 10 -3 14 0 3 4 0 7 -7 7 -7 0 -10 -3 -7 -7z" />
    <path d="M510 670 c0 -7 3 -10 7 -7 3 4 3 10 0 14 -4 3 -7 0 -7 -7z" />
    <path d="M964 500 c0 -11 4 -20 8 -20 4 0 8 9 8 20 0 11 -4 20 -8 20 -4 0 -8
-9 -8 -20z" />
  </g>
  <g transform="translate(0.000000,100.000000) scale(0.100000,-0.100000)" fill="#232323" stroke="none">
    <path d="M964 500 l0 -20 10 10 10 10 -10 10 -10 10 0 -20z" />
    <path d="M510 327 c0 -8 -8 -18 -17 -20 l-18 -5 18 -1 c18 -1 35 25 23 36 -3
4 -6 -1 -6 -10z" />
  </g>
  <g transform="translate(0.000000,100.000000) scale(0.100000,-0.100000)" fill="#303030" stroke="none">
    <path d="M505 310 c-3 -5 -1 -10 4 -10 6 0 11 5 11 10 0 6 -2 10 -4 10 -3 0
-8 -4 -11 -10z" />
  </g>
  <g transform="translate(0.000000,100.000000) scale(0.100000,-0.100000)" fill="#b3b3b3" stroke="none" />
  <g transform="translate(0.000000,100.000000) scale(0.100000,-0.100000)" fill="#1a1a1a" stroke="none">
    <path d="M970 500 c0 -7 3 -10 7 -7 3 4 3 10 0 14 -4 3 -7 0 -7 -7z" />
  </g>
  <g transform="translate(0.000000,100.000000) scale(0.100000,-0.100000)" fill="#0a0a0a" stroke="none">
    <path d="M24 988 l-7 -11 11 7 c12 7 16 16 8 16 -3 0 -8 -5 -12 -12z" />
  </g>
  <g transform="translate(0.000000,100.000000) scale(0.100000,-0.100000)" fill="#555555" stroke="none">
    <path d="M490 696 c0 -2 7 -6 15 -10 8 -3 15 -1 15 4 0 6 -7 10 -15 10 -8 0
-15 -2 -15 -4z" />
  </g>
  <g transform="translate(0.000000,100.000000) scale(0.100000,-0.100000)" fill="#cacaca" stroke="none" />
  <g transform="translate(0.000000,100.000000) scale(0.100000,-0.100000)" fill="#3e3e3e" stroke="none" />
  <g transform="translate(0.000000,100.000000) scale(0.100000,-0.100000)" fill="#e7e7e7" stroke="none">
    <path d="M510 690 c0 -7 3 -10 7 -7 3 4 3 10 0 14 -4 3 -7 0 -7 -7z" />
  </g>
  <g transform="translate(0.000000,100.000000) scale(0.100000,-0.100000)" fill="#414141" stroke="none">
    <path d="M510 680 c0 -7 3 -10 7 -7 3 4 3 10 0 14 -4 3 -7 0 -7 -7z" />
  </g>
  <g transform="translate(0.000000,100.000000) scale(0.100000,-0.100000)" fill="#585858" stroke="none" />
  <g transform="translate(0.000000,100.000000) scale(0.100000,-0.100000)" fill="#000000" stroke="none" />
  <g transform="translate(0.000000,100.000000) scale(0.100000,-0.100000)" fill="#000000" stroke="none" />
  <g transform="translate(0.000000,100.000000) scale(0.100000,-0.100000)" fill="#000000" stroke="none" />
  <g transform="translate(0.000000,100.000000) scale(0.100000,-0.100000)" fill="#000000" stroke="none" />
  <g transform="translate(0.000000,100.000000) scale(0.100000,-0.100000)" fill="#000000" stroke="none" />
</svg>