<svg xmlns="http://www.w3.org/2000/svg" width="512" height="512" viewBox="0 0 512 512" version="1.1"><path d="M 27.316 58.210 C 18.625 70.071, 18.402 70.510, 20.906 70.774 C 25.924 71.305, 28.070 72.070, 30.025 74.025 C 31.978 75.978, 32 78.149, 32 266 L 32 456 85.500 456 L 139 456 139 448.500 L 139 441 96.750 440.985 C 50.680 440.969, 50.652 440.966, 48 435.267 C 47.018 433.156, 45.777 432.036, 44.405 432.022 C 43.253 432.010, 41.453 431.053, 40.405 429.895 C 38.544 427.838, 38.509 423.805, 38.867 256.145 C 39.083 155.556, 39.612 83.780, 40.146 82.762 C 40.648 81.806, 42.151 80.749, 43.488 80.414 C 44.825 80.078, 46.824 78.269, 47.930 76.394 C 49.037 74.518, 51.045 72.481, 52.394 71.866 L 54.845 70.750 46.300 59.125 C 41.600 52.731, 37.432 47.145, 37.038 46.710 C 36.644 46.276, 32.269 51.451, 27.316 58.210 M 443.315 139.784 C 425.173 166.779, 392.049 202.288, 360 229.094 C 316.476 265.498, 262.562 295.934, 210.685 313.387 C 197.308 317.887, 174.709 323.782, 167.650 324.611 C 162.595 325.205, 162.257 325.094, 159.622 321.962 L 156.871 318.693 146.935 319.959 C 138.432 321.043, 137 321.489, 137 323.057 C 137 324.064, 135.947 326.113, 134.660 327.609 L 132.321 330.329 101.410 331.099 C 84.410 331.523, 68.813 331.899, 66.750 331.935 L 63 332 63 378.500 L 63 425 256 425 L 449 425 449 278.500 C 449 197.925, 448.887 132.015, 448.750 132.034 C 448.613 132.052, 446.167 135.540, 443.315 139.784 M 361.011 243.790 C 358.059 246.180, 357.969 252.413, 360.844 255.289 C 363.391 257.835, 368.300 257.943, 370.987 255.512 C 373.919 252.858, 373.793 245.669, 370.777 243.557 C 367.825 241.488, 363.732 241.586, 361.011 243.790 M 361 281 C 357.736 284.264, 358.008 289.509, 361.611 292.750 C 364.718 295.546, 366.978 295.592, 370.365 292.927 C 375.823 288.634, 372.803 279, 366 279 C 364.333 279, 362.111 279.889, 361 281 M 253.315 316.007 C 250.564 317.116, 249 319.989, 249 323.934 C 249 330.684, 257.746 333.682, 261.927 328.365 C 265.257 324.132, 264.014 318.239, 259.343 316.110 C 256.531 314.829, 256.250 314.825, 253.315 316.007 M 363.465 315.961 C 360.249 317.250, 358.800 319.648, 358.800 323.683 C 358.800 328.109, 361.689 331, 366.111 331 C 370.219 331, 373 327.833, 373 323.155 C 373 317.644, 368.236 314.049, 363.465 315.961 M 142.080 353.750 C 140.903 354.712, 139.674 357.154, 139.351 359.177 C 138.860 362.240, 139.192 363.282, 141.336 365.427 C 146.501 370.592, 154 367.236, 154 359.758 C 154 353.425, 146.873 349.833, 142.080 353.750 M 251.455 354.455 C 246.470 359.439, 249.773 368, 256.680 368 C 260.122 368, 264 363.762, 264 360 C 264 356.161, 260.100 352, 256.500 352 C 255.075 352, 252.805 353.105, 251.455 354.455 M 362.159 353.601 C 358.957 355.844, 357.853 359.280, 359.144 362.984 C 360.341 366.418, 362.640 368, 366.434 368 C 372.847 368, 375.613 358.201, 370.365 354.073 C 367.200 351.583, 365.204 351.468, 362.159 353.601 M 141.073 391.635 C 137.656 395.978, 139.046 401.948, 143.946 403.978 C 149.241 406.171, 154 402.426, 154 396.066 C 154 389.316, 145.254 386.318, 141.073 391.635 M 251.174 391.314 C 245.525 397.328, 251.588 407.070, 259.054 403.978 C 263.954 401.948, 265.344 395.978, 261.927 391.635 C 259.218 388.191, 254.248 388.043, 251.174 391.314 M 361.011 390.790 C 357.712 393.462, 357.944 399.695, 361.456 402.716 C 364.745 405.545, 366.971 405.598, 370.365 402.927 C 372.413 401.317, 373 399.979, 373 396.927 C 373 389.964, 366.279 386.524, 361.011 390.790 M 465 431.861 C 465 433.619, 463.988 436.065, 462.587 437.694 L 460.175 440.500 417.087 440.781 L 374 441.062 374 452.531 L 374 464 383.481 464 C 392.783 464, 392.974 463.952, 393.595 461.477 C 394.935 456.138, 395.838 456, 429.568 456 C 459.603 456, 460.754 456.071, 462.533 458.036 C 463.546 459.156, 464.628 461.805, 464.938 463.924 L 465.500 467.776 476.750 459.391 C 491.842 448.143, 491.850 447.890, 477.438 437.278 C 471.629 433, 466.454 429.350, 465.938 429.167 C 465.422 428.983, 465 430.196, 465 431.861 M 155 448.500 L 155 456 201.500 456 L 248 456 248 448.500 L 248 441 201.500 441 L 155 441 155 448.500 M 264 448.500 L 264 456 311 456 L 358 456 358 448.500 L 358 441 311 441 L 264 441 264 448.500" stroke="none" fill="#d0e1f7" fill-rule="evenodd"/><path d="M 34.500 24.959 C 33.400 25.417, 31.318 27.076, 29.874 28.646 C 26.911 31.865, 2.657 64.903, 1.045 67.916 C -0.766 71.299, -0.211 78.462, 2.088 81.385 C 4.753 84.773, 9.061 87, 12.950 87 L 16 87 16 275.550 C 16 476.837, 15.807 468.561, 20.545 470.379 C 21.435 470.720, 48.452 471, 80.582 471 L 139 471 139 475.811 C 139 480.938, 141.459 484.891, 144.789 485.115 C 151.343 485.556, 154.095 483.065, 154.766 476.083 L 155.254 471 201.488 471 L 247.721 471 248.337 476.199 C 248.986 481.677, 251.098 484.706, 254.500 485.036 C 261.211 485.687, 264 483.034, 264 476 L 264 471 311 471 L 358 471 358 475.444 C 358 481.307, 361.257 485.333, 366 485.333 C 368.370 485.333, 369.985 484.556, 371.658 482.611 C 373.940 479.958, 374 479.391, 374 460.475 L 374 441.062 417.087 440.781 L 460.175 440.500 462.587 437.694 C 463.988 436.065, 465 433.619, 465 431.861 C 465 430.196, 465.422 428.983, 465.938 429.167 C 466.454 429.350, 471.629 433, 477.438 437.278 C 491.850 447.890, 491.842 448.143, 476.750 459.391 L 465.500 467.776 464.938 463.924 C 464.628 461.805, 463.546 459.156, 462.533 458.036 C 460.754 456.071, 459.604 456, 429.456 456 C 400.428 456, 398.058 456.132, 395.911 457.871 C 392.700 460.471, 392.700 466.529, 395.911 469.129 C 398.033 470.847, 400.294 471, 423.611 471 L 449 471 449 474.099 C 449 484.155, 459.619 491.056, 468.202 486.578 C 473.220 483.960, 506.973 458.821, 509.496 455.822 C 512.772 451.929, 512.989 444.527, 509.941 440.652 C 507.951 438.123, 480.942 417.876, 470.268 410.913 L 465.036 407.500 465.067 257 L 465.099 106.500 468.968 99 L 472.837 91.500 474.351 95.055 C 475.183 97.011, 476.164 99.805, 476.531 101.266 C 477.583 105.459, 481.460 109, 484.998 109 C 488.596 109, 493 105.170, 493 102.041 C 493 99.419, 481.788 68.851, 479.603 65.517 C 478.325 63.567, 477.115 63.003, 474.227 63.015 C 469.160 63.034, 438.994 74.368, 436.750 77.095 C 433.155 81.464, 435.564 88.100, 441.266 89.531 C 442.668 89.882, 446.641 88.934, 451.333 87.127 L 459.084 84.143 454.373 92.821 C 413.468 168.176, 342.814 234.630, 259.230 276.362 C 230.662 290.626, 207.464 299.272, 178.228 306.554 C 168.552 308.964, 160.073 311.512, 159.384 312.218 C 156.657 315.010, 156.742 318.540, 159.618 321.957 C 162.257 325.094, 162.594 325.206, 167.650 324.611 C 174.709 323.782, 197.308 317.887, 210.685 313.387 C 255.811 298.205, 299.362 275.036, 340.500 244.325 C 380.039 214.807, 419.504 174.688, 443.560 139.555 L 449 131.609 449 278.305 L 449 425 256 425 L 63 425 63 378.500 L 63 332 66.750 331.935 C 68.813 331.899, 84.410 331.523, 101.410 331.099 L 132.321 330.329 134.660 327.609 C 137.679 324.099, 137.630 320.540, 134.521 317.430 L 132.042 314.951 97.521 315.636 L 63 316.321 63 201.790 L 63 87.260 67.576 86.744 C 75.580 85.842, 81.675 77.245, 79.248 70.282 C 77.588 65.521, 48.935 27.018, 45.873 25.435 C 42.842 23.867, 37.645 23.650, 34.500 24.959 M 27.316 58.210 C 18.625 70.071, 18.402 70.510, 20.906 70.774 C 25.924 71.305, 28.070 72.070, 30.025 74.025 C 31.978 75.978, 32 78.149, 32 266 L 32 456 85.500 456 L 139 456 139 448.500 L 139 441 96.750 440.985 C 50.680 440.969, 50.652 440.966, 48 435.267 C 47.018 433.156, 45.777 432.036, 44.405 432.022 C 43.253 432.010, 41.453 431.053, 40.405 429.895 C 38.544 427.838, 38.509 423.805, 38.867 256.145 C 39.083 155.556, 39.612 83.780, 40.146 82.762 C 40.648 81.806, 42.151 80.749, 43.488 80.414 C 44.825 80.078, 46.824 78.269, 47.930 76.394 C 49.037 74.518, 51.045 72.481, 52.394 71.866 L 54.845 70.750 46.300 59.125 C 41.600 52.731, 37.432 47.145, 37.038 46.710 C 36.644 46.276, 32.269 51.451, 27.316 58.210 M 148.274 74.093 C 141.628 77.383, 139.628 81.583, 139.160 93.230 C 138.775 102.801, 138.718 103, 136.338 103 C 132.880 103, 129 107.230, 129 111 C 129 114.820, 132.895 119, 136.455 119 L 139 119 139 145.453 C 139 162.983, 139.381 172.742, 140.130 174.385 C 140.751 175.749, 142.551 177.400, 144.130 178.054 C 147.816 179.581, 152.267 177.905, 153.870 174.385 C 154.619 172.742, 155 162.983, 155 145.453 L 155 119 158.944 119 C 167.374 119, 171.548 110.449, 165.611 105.342 C 163.751 103.742, 161.639 103, 158.944 103 L 155 103 155 95.500 L 155 88 159.444 88 C 164.573 88, 168.532 85.174, 169.564 80.775 C 170.077 78.594, 169.601 77.447, 167.179 75.025 C 164.504 72.350, 163.479 72, 158.327 72.001 C 154.430 72.001, 151.101 72.694, 148.274 74.093 M 291.017 85.262 C 287.080 87.292, 286.396 90.854, 288.371 99.038 C 292.491 116.109, 292.829 132.701, 289.430 151 C 286.494 166.803, 286.473 167.811, 289.040 170.542 C 292.069 173.767, 296.873 173.828, 299.831 170.680 C 304.816 165.374, 308.926 133.820, 307.061 115.168 C 305.756 102.114, 302.639 89.180, 300.229 86.819 C 297.779 84.419, 293.916 83.766, 291.017 85.262 M 190.224 89.262 C 183.046 96.902, 180.675 136.597, 185.968 160.500 C 188.558 172.196, 190.502 175, 196.019 175 C 199.698 175, 202.055 173.309, 203.309 169.770 C 203.646 168.819, 203.003 164.094, 201.881 159.270 C 200.437 153.067, 199.689 145.525, 199.324 133.500 C 198.865 118.399, 199.056 115.383, 201.034 106.500 C 202.258 101, 203.262 95.181, 203.264 93.568 C 203.273 87.543, 194.546 84.661, 190.224 89.262 M 217.219 92.267 C 213.038 96.718, 214.077 99.719, 224.582 113.531 C 229.852 120.460, 233.953 126.662, 233.695 127.315 C 233.436 127.967, 229.080 133.900, 224.014 140.500 C 210.942 157.531, 210.337 158.955, 214.250 163.504 C 217.254 166.997, 222.128 167.168, 225.604 163.903 C 227.011 162.581, 231.773 156.662, 236.186 150.750 C 240.599 144.838, 244.339 140, 244.497 140 C 244.656 140, 249.100 145.774, 254.374 152.831 C 259.647 159.888, 265.147 166.202, 266.596 166.862 C 271.684 169.180, 277 165.719, 277 160.089 C 277 157.046, 275.242 154.166, 265.660 141.514 L 254.319 126.540 264.160 113.433 C 274.890 99.141, 275.760 96.670, 271.545 92.455 C 269.166 90.075, 265.797 89.373, 262.616 90.594 C 261.765 90.920, 257.355 96.164, 252.816 102.246 L 244.563 113.305 241.885 109.903 C 226.855 90.805, 226.571 90.509, 222.953 90.203 C 220.305 89.979, 218.890 90.488, 217.219 92.267 M 361.011 243.790 C 358.059 246.180, 357.969 252.413, 360.844 255.289 C 363.391 257.835, 368.300 257.943, 370.987 255.512 C 373.919 252.858, 373.793 245.669, 370.777 243.557 C 367.825 241.488, 363.732 241.586, 361.011 243.790 M 361 281 C 357.736 284.264, 358.008 289.509, 361.611 292.750 C 364.718 295.546, 366.978 295.592, 370.365 292.927 C 375.823 288.634, 372.803 279, 366 279 C 364.333 279, 362.111 279.889, 361 281 M 253.315 316.007 C 250.564 317.116, 249 319.989, 249 323.934 C 249 330.684, 257.746 333.682, 261.927 328.365 C 265.257 324.132, 264.014 318.239, 259.343 316.110 C 256.531 314.829, 256.250 314.825, 253.315 316.007 M 363.465 315.961 C 360.249 317.250, 358.800 319.648, 358.800 323.683 C 358.800 328.109, 361.689 331, 366.111 331 C 370.219 331, 373 327.833, 373 323.155 C 373 317.644, 368.236 314.049, 363.465 315.961 M 142.080 353.750 C 140.903 354.712, 139.674 357.154, 139.351 359.177 C 138.860 362.240, 139.192 363.282, 141.336 365.427 C 146.501 370.592, 154 367.236, 154 359.758 C 154 353.425, 146.873 349.833, 142.080 353.750 M 251.455 354.455 C 246.470 359.439, 249.773 368, 256.680 368 C 260.122 368, 264 363.762, 264 360 C 264 356.161, 260.100 352, 256.500 352 C 255.075 352, 252.805 353.105, 251.455 354.455 M 362.159 353.601 C 358.957 355.844, 357.853 359.280, 359.144 362.984 C 360.341 366.418, 362.640 368, 366.434 368 C 372.847 368, 375.613 358.201, 370.365 354.073 C 367.200 351.583, 365.204 351.468, 362.159 353.601 M 141.073 391.635 C 137.656 395.978, 139.046 401.948, 143.946 403.978 C 149.241 406.171, 154 402.426, 154 396.066 C 154 389.316, 145.254 386.318, 141.073 391.635 M 251.174 391.314 C 245.525 397.328, 251.588 407.070, 259.054 403.978 C 263.954 401.948, 265.344 395.978, 261.927 391.635 C 259.218 388.191, 254.248 388.043, 251.174 391.314 M 361.011 390.790 C 357.712 393.462, 357.944 399.695, 361.456 402.716 C 364.745 405.545, 366.971 405.598, 370.365 402.927 C 372.413 401.317, 373 399.979, 373 396.927 C 373 389.964, 366.279 386.524, 361.011 390.790 M 155 448.500 L 155 456 201.500 456 L 248 456 248 448.500 L 248 441 201.500 441 L 155 441 155 448.500 M 264 448.500 L 264 456 311 456 L 358 456 358 448.500 L 358 441 311 441 L 264 441 264 448.500" stroke="none" fill="#040404" fill-rule="evenodd"/></svg>