<svg xmlns="http://www.w3.org/2000/svg" width="512" height="512" viewBox="0 0 512 512" version="1.1"><path d="M 38.500 75.083 L 35.500 77.152 37.500 76.623 C 38.600 76.333, 40.734 75.801, 42.243 75.441 C 43.752 75.081, 44.738 74.385, 44.434 73.893 C 43.562 72.483, 41.740 72.848, 38.500 75.083 M 49.650 80.683 C 49.443 80.890, 46.850 81.180, 43.887 81.328 L 38.500 81.597 33.621 84.040 C 26.007 87.853, 19.513 96.665, 17.512 105.898 L 16.776 109.296 21.638 106.592 L 26.500 103.889 21.105 109.373 L 15.709 114.857 16.368 121.291 C 16.992 127.379, 19.626 137, 20.670 137 C 20.934 137, 24.380 135.140, 28.326 132.868 C 32.271 130.595, 37.075 127.849, 39 126.766 L 42.500 124.796 38.964 128.148 C 37.019 129.992, 32.550 134.006, 29.033 137.068 L 22.640 142.636 26.138 146.453 L 29.636 150.271 40.568 144.011 C 46.581 140.568, 53.075 136.863, 55 135.777 L 58.500 133.804 55 137.061 C 53.075 138.853, 48.026 143.613, 43.781 147.641 L 36.061 154.962 37.781 155.879 C 38.726 156.383, 41.415 157.309, 43.757 157.938 L 48.013 159.081 55.257 154.897 C 59.240 152.596, 62.950 150.486, 63.500 150.210 C 64.050 149.933, 62.721 151.572, 60.547 153.853 L 56.594 158 59.047 157.990 C 62.247 157.977, 70.658 154.022, 74.647 150.653 C 79.073 146.916, 83.546 139.513, 85.511 132.676 C 86.432 129.473, 87.019 126.686, 86.816 126.483 C 86.613 126.280, 83.309 127.906, 79.473 130.097 L 72.500 134.081 79.840 126.838 L 87.180 119.594 86.520 114.313 C 86.157 111.408, 85.470 108.790, 84.993 108.496 C 84.516 108.201, 80.613 110.037, 76.319 112.575 C 66.667 118.281, 65 119.178, 65 118.665 C 65 118.442, 69.050 114.768, 74 110.500 C 78.950 106.232, 83 102.399, 83 101.980 C 83 100.280, 74.173 89.404, 71.750 88.120 L 69.147 86.740 61.323 91.255 C 57.020 93.737, 51.700 96.761, 49.500 97.974 L 45.500 100.179 54.287 91.671 C 59.120 86.992, 62.678 82.919, 62.195 82.620 C 61.012 81.890, 50.125 80.208, 49.650 80.683 M 61.001 163.396 L 56.502 164.595 58.315 165.290 L 60.127 165.986 63.063 164.467 C 64.679 163.632, 66 162.735, 66 162.474 C 66 162.213, 65.888 162.044, 65.750 162.098 C 65.612 162.152, 63.476 162.736, 61.001 163.396 M 38.441 211.515 L 36.500 213.031 39.500 212.380 C 41.150 212.023, 43.175 211.355, 44 210.895 L 45.500 210.061 42.941 210.030 C 41.534 210.014, 39.509 210.682, 38.441 211.515 M 37.500 218.227 C 25.143 222.632, 17.609 234.297, 16.319 251.021 L 15.726 258.712 16.850 259.408 L 17.975 260.103 25.238 255.885 C 29.232 253.565, 33.625 250.995, 35 250.173 C 36.375 249.351, 35.025 250.884, 32 253.580 C 28.975 256.276, 24.504 260.340, 22.065 262.612 L 17.630 266.743 19.398 271.371 C 20.370 273.917, 21.691 275.999, 22.333 275.997 C 22.975 275.996, 25.975 274.516, 29 272.709 C 38.976 266.748, 44 263.911, 44 264.238 C 44 264.415, 39.725 268.121, 34.500 272.474 C 29.275 276.827, 25 280.839, 25 281.389 C 25 282.859, 30.163 288, 31.639 288 C 32.334 288, 38.213 284.918, 44.702 281.151 C 51.191 277.385, 57.471 273.791, 58.658 273.166 C 59.844 272.540, 56.019 276.744, 50.158 282.506 L 39.500 292.984 40.915 293.903 C 43.199 295.386, 50.078 296.086, 56 295.439 C 66.037 294.342, 74.593 289.358, 80.046 281.434 C 83.263 276.758, 86.637 268.304, 85.672 267.338 C 85.368 267.034, 82.504 268.232, 79.309 270 L 73.500 273.215 80.355 266.399 L 87.210 259.583 86.793 253.813 C 86.563 250.639, 86.126 247.793, 85.822 247.489 C 85.518 247.185, 81.271 249.210, 76.385 251.990 L 67.500 257.044 70.524 254.272 C 72.188 252.747, 75.991 249.412, 78.975 246.859 L 84.402 242.218 82.527 238.061 C 81.496 235.774, 80.291 233.680, 79.848 233.406 C 79.406 233.133, 74.646 235.467, 69.272 238.595 C 53.043 248.037, 52.464 248.357, 53.500 247.303 C 54.504 246.282, 74.141 228.859, 74.911 228.307 C 75.626 227.793, 71.606 223.848, 68.988 222.494 L 66.472 221.193 60.486 224.640 L 54.500 228.088 58.750 224.461 C 61.087 222.466, 63 220.443, 63 219.964 C 63 218.876, 56.464 217.013, 52.618 217.006 C 51.033 217.003, 48.108 217.984, 46.118 219.186 L 42.500 221.372 44.405 219.186 L 46.310 217 43.405 217.079 C 41.807 217.122, 39.150 217.639, 37.500 218.227 M 38.441 300.418 C 40.662 302.228, 42.603 302.451, 43.500 301 L 44.118 300 42.141 300 C 41.053 300, 39.339 299.738, 38.332 299.418 L 36.500 298.837 38.441 300.418 M 59.500 301 L 56.500 301.763 59 301.866 C 60.375 301.923, 62.175 301.533, 63 301 C 64.702 299.900, 63.822 299.900, 59.500 301 M 37.629 356.746 L 32.758 358.369 27.511 363.164 L 22.264 367.960 20.107 372.972 C 17.886 378.135, 15.625 387.958, 16.464 388.797 C 16.724 389.058, 18.189 388.490, 19.719 387.535 L 22.500 385.800 19.220 388.979 L 15.939 392.158 16.551 395.829 C 17.573 401.953, 19.968 409.862, 20.992 410.495 C 21.524 410.824, 22.980 410.591, 24.229 409.979 L 26.500 408.866 24.049 410.839 L 21.598 412.812 24.435 416.906 C 25.995 419.158, 27.410 421, 27.578 421 C 27.747 421, 32.973 418.043, 39.192 414.430 L 50.500 407.859 45 412.678 C 41.975 415.328, 37.724 419.130, 35.553 421.127 L 31.605 424.758 35.603 426.797 C 37.802 427.919, 41.897 429.254, 44.703 429.764 L 49.806 430.692 55.375 429.936 L 60.945 429.180 66.596 426.340 C 69.704 424.778, 74.143 421.839, 76.461 419.808 L 80.675 416.116 83.306 410.254 C 84.753 407.029, 86.249 401.716, 86.631 398.446 L 87.326 392.500 85.913 393.578 C 85.136 394.171, 82.250 395.889, 79.500 397.396 L 74.500 400.136 80.740 394.318 L 86.979 388.500 85.948 384.087 C 85.381 381.660, 84.683 379.296, 84.398 378.834 L 83.879 377.995 81.689 379.052 L 79.500 380.110 81.250 378.695 C 82.212 377.916, 83 376.758, 83 376.120 C 83 374.312, 78.558 367.812, 75.080 364.531 L 71.932 361.561 70.216 362.598 C 64.636 365.968, 57 370.085, 57 369.723 C 57 369.490, 59.475 367.324, 62.500 364.910 C 65.525 362.496, 68 360.156, 68 359.710 C 68 358.493, 61.458 355.999, 58.282 356.005 L 55.500 356.011 44.163 362.487 L 32.827 368.963 39.016 361.982 C 42.421 358.142, 44.597 355.028, 43.853 355.062 C 43.109 355.096, 40.308 355.854, 37.629 356.746" stroke="none" fill="#4ed8d5" fill-rule="evenodd"/><path d="M 447.134 149.955 C 437.458 153.230, 430.351 161.193, 427.519 171.930 L 426.139 177.161 427.819 176.578 L 429.500 175.995 427.750 177.358 L 426 178.720 426 185.360 C 426 189.012, 426.257 192, 426.572 192 C 426.886 192, 429.249 190.817, 431.822 189.372 L 436.500 186.743 431.677 191.012 L 426.854 195.281 427.461 197.890 C 427.795 199.326, 428.543 201.702, 429.123 203.172 L 430.178 205.843 435.339 202.895 L 440.500 199.947 435.814 204.024 L 431.127 208.101 433.164 211.554 C 434.285 213.453, 435.626 215.269, 436.146 215.590 C 436.970 216.100, 441.640 213.667, 458.500 203.945 C 460.700 202.677, 462.275 201.878, 462 202.171 C 461.725 202.464, 457.218 206.483, 451.984 211.102 C 446.751 215.721, 442.310 219.933, 442.115 220.463 C 441.921 220.993, 443.757 222.540, 446.196 223.901 L 450.629 226.377 461.564 220.125 L 472.500 213.874 465.500 221.058 L 458.500 228.242 465.200 227.663 L 471.899 227.085 476.984 224.508 C 483.524 221.194, 489.271 215.233, 492.493 208.423 C 494.904 203.328, 497 195.115, 497 190.768 L 497 188.810 492.250 191.570 C 489.637 193.089, 486.375 194.976, 485 195.764 C 483.625 196.553, 485.538 194.341, 489.250 190.849 L 496.001 184.500 496 182.616 C 496 181.580, 495.478 178.990, 494.840 176.861 L 493.680 172.990 488.340 176.003 C 485.403 177.661, 483 178.872, 483 178.694 C 483 178.517, 485.025 176.854, 487.500 175 C 489.975 173.146, 492 171.013, 492 170.261 C 492 169.509, 490.964 167.369, 489.697 165.505 L 487.394 162.116 482.947 164.626 C 480.501 166.006, 476.475 168.296, 474 169.714 C 468.596 172.811, 468.609 172.794, 477.752 165.185 L 485.004 159.149 481.274 156.074 C 477.089 152.625, 476.280 152.443, 473.473 154.317 C 472.388 155.041, 469.250 156.865, 466.500 158.371 L 461.500 161.108 466.750 156.224 C 469.637 153.539, 472 151.071, 472 150.741 C 472 149.834, 462.109 148.144, 456.929 148.167 C 454.415 148.177, 450.007 148.982, 447.134 149.955 M 461.166 232.876 L 459.832 233.722 461.486 234.356 L 463.140 234.991 465.820 233.535 L 468.500 232.080 465.500 232.055 C 463.850 232.042, 461.900 232.411, 461.166 232.876 M 450.734 286.151 C 441.527 288.166, 433.831 294.718, 429.480 304.247 L 426.856 309.994 426.288 315.497 C 425.976 318.524, 426.017 321, 426.380 321 C 426.743 321, 428.718 319.946, 430.770 318.658 C 438.713 313.670, 439.246 314.024, 432.750 319.976 L 426 326.159 426.077 328.330 C 426.119 329.523, 426.682 332.191, 427.327 334.257 L 428.500 338.014 434 334.706 C 437.025 332.886, 442.200 329.907, 445.500 328.085 L 451.500 324.773 448.823 327.136 C 447.350 328.436, 442.737 332.411, 438.573 335.970 C 434.408 339.528, 431 342.911, 431 343.487 C 431 344.064, 432.145 346.220, 433.544 348.280 L 436.088 352.023 438.294 350.854 C 439.507 350.211, 442.188 348.625, 444.250 347.330 C 449.449 344.065, 448.934 345.086, 443 349.811 L 438 353.792 441.535 356.896 C 443.479 358.603, 445.541 360, 446.117 360 C 446.692 360, 449.939 358.391, 453.332 356.424 L 459.500 352.848 454.511 357.290 L 449.522 361.732 454.841 362.872 L 460.159 364.013 466.692 362.969 C 474.506 361.721, 479.734 359.209, 485.417 353.969 L 489.636 350.081 492.323 344.593 L 495.010 339.105 496.164 331.687 C 496.798 327.606, 497.016 323.484, 496.648 322.526 L 495.980 320.783 493.240 322.455 L 490.500 324.127 493.342 321.532 L 496.184 318.937 494.992 313.969 C 494.337 311.236, 493.366 309, 492.835 309 C 492.304 309, 488.186 311.175, 483.684 313.833 C 473.438 319.883, 471 321.188, 471 320.621 C 471 320.374, 475.275 316.495, 480.500 312 C 485.725 307.505, 490 303.410, 490 302.899 C 490 302.388, 488.538 300.429, 486.750 298.544 L 483.500 295.117 471.500 302.095 L 459.500 309.072 463.010 305.786 C 464.941 303.979, 469.397 299.957, 472.913 296.849 L 479.307 291.197 475.193 289.099 C 472.931 287.944, 470.128 287, 468.964 287 C 467.801 287, 461.483 290.115, 454.925 293.922 C 448.366 297.729, 443 300.514, 443 300.109 C 443 299.705, 444.392 298.052, 446.093 296.437 C 449.798 292.918, 455.391 286.025, 454.871 285.617 C 454.667 285.458, 452.806 285.698, 450.734 286.151" stroke="none" fill="#ea4458" fill-rule="evenodd"/><path d="M 243 14.659 C 234.225 17.709, 228.731 22.978, 224.352 32.542 L 221.767 38.189 221.242 46.594 L 220.718 55 221.637 55 C 222.142 55, 223.443 54.402, 224.527 53.670 C 225.612 52.939, 229.200 50.873, 232.500 49.079 L 238.500 45.817 230.571 53.232 L 222.641 60.646 223.958 65.349 C 224.682 67.935, 225.582 70.241, 225.957 70.473 C 226.333 70.706, 231.783 67.965, 238.070 64.383 C 244.356 60.801, 249.050 58.300, 248.500 58.826 C 247.950 59.352, 243.675 63.030, 239 67 C 234.325 70.970, 230.128 74.564, 229.673 74.986 L 228.846 75.754 232.026 79.377 C 233.776 81.370, 235.598 83, 236.075 83 C 236.552 83, 240.440 80.932, 244.715 78.405 C 248.990 75.877, 253.391 73.372, 254.494 72.837 L 256.500 71.864 252.968 75.182 C 251.026 77.007, 247.498 80.222, 245.129 82.328 C 242.760 84.433, 240.975 86.268, 241.161 86.405 C 241.911 86.957, 247.673 88.875, 250.341 89.461 L 253.182 90.084 257.841 87.410 C 260.403 85.940, 264.075 83.824, 266 82.708 L 269.500 80.679 265.547 84.840 L 261.594 89 263.547 88.999 C 266.929 88.998, 277.560 83.373, 281.356 79.577 C 285.521 75.412, 289.533 68.033, 290.871 62.078 L 291.787 58 290.951 58 C 290.491 58, 288.401 58.942, 286.307 60.093 L 282.500 62.186 287.385 57.750 L 292.270 53.313 291.563 47.657 L 290.856 42 289.809 42 C 289.233 42, 286.003 43.642, 282.631 45.649 C 272.805 51.497, 269.466 53.385, 270 52.791 C 270.275 52.486, 274.550 48.767, 279.500 44.527 C 284.450 40.287, 288.372 36.297, 288.216 35.659 C 287.574 33.042, 284.474 28, 283.507 28 C 282.935 28, 277.750 30.735, 271.984 34.078 C 266.218 37.421, 260.600 40.626, 259.500 41.201 L 257.500 42.245 258.500 41.243 C 259.050 40.692, 263.775 36.517, 269 31.965 C 274.225 27.414, 278.636 23.351, 278.803 22.936 C 279.234 21.865, 272.625 17, 270.739 17 C 269.874 17, 269.017 16.550, 268.833 16 C 268.650 15.449, 265.857 14.445, 262.628 13.768 L 256.756 12.536 250.628 15.861 L 244.500 19.186 247.437 16.093 L 250.374 13 248.937 13.048 C 248.147 13.074, 245.475 13.799, 243 14.659 M 241.656 144.116 C 236.735 146.713, 237.440 147.462, 242.970 145.511 C 245.325 144.680, 248.121 144, 249.185 144 L 251.118 144 250.500 143 C 249.533 141.435, 245.859 141.899, 241.656 144.116 M 241.692 150.972 C 231.910 154.794, 225.434 162.397, 222.559 173.436 C 220.942 179.643, 221.089 180.868, 223.273 179.393 C 224 178.902, 223.786 179.247, 222.797 180.160 L 221 181.821 221 186.700 C 221 192.880, 223.255 201.596, 226.521 208.042 L 229.059 213.050 233.779 210.331 C 236.376 208.835, 240.075 206.645, 242 205.463 C 243.925 204.282, 246.625 202.769, 248 202.102 L 250.500 200.890 248.923 202.195 C 248.056 202.913, 243.910 206.398, 239.709 209.940 L 232.070 216.380 233.112 217.635 C 235.270 220.235, 243.676 224.907, 248.253 226.051 L 253.007 227.239 254.695 225.870 L 256.384 224.500 255.537 225.906 L 254.689 227.312 260.512 226.711 L 266.334 226.110 272.582 223.034 L 278.829 219.959 282.062 216.277 C 283.840 214.252, 286.601 209.803, 288.198 206.391 L 291.101 200.188 291.689 193.175 C 292.012 189.318, 292.008 185.462, 291.679 184.606 L 291.082 183.049 283.541 187.508 C 279.393 189.960, 276 191.838, 276 191.682 C 276 191.526, 279.150 188.807, 283 185.640 L 290 179.882 290 177.600 C 290 176.346, 288.642 172.602, 286.982 169.280 L 283.964 163.240 278.946 158.546 L 273.928 153.852 269.214 156.558 C 256.218 164.017, 256.360 164.016, 265.380 156.572 L 270.139 152.645 267.820 151.372 C 266.544 150.671, 263.585 149.800, 261.246 149.435 L 256.991 148.772 250.746 152.472 L 244.500 156.172 247.946 152.586 L 251.392 149 248.946 149.047 C 247.601 149.073, 244.337 149.939, 241.692 150.972 M 256.630 234.030 L 257.661 235.061 260.080 234.094 L 262.500 233.127 259.050 233.063 L 255.600 233 256.630 234.030 M 241.751 280.692 C 239.139 282.146, 237.129 283.462, 237.284 283.617 C 237.439 283.772, 240.632 282.963, 244.381 281.819 L 251.195 279.739 249.848 278.885 C 247.831 277.607, 246.935 277.807, 241.751 280.692 M 241.324 287.638 C 239.028 288.451, 235.100 290.920, 232.597 293.124 L 228.045 297.131 224.523 304.315 C 222.586 308.267, 220.714 312.992, 220.363 314.815 L 219.724 318.129 227.612 313.474 L 235.500 308.820 227.162 316.579 L 218.823 324.337 219.484 328.919 C 220.295 334.543, 224.448 344, 226.107 344 C 226.776 344, 229.389 342.847, 231.912 341.437 C 236.484 338.883, 236.256 339.224, 230.178 344.035 L 226.975 346.570 230.748 350.254 L 234.520 353.937 244.010 348.403 C 249.230 345.359, 255.525 341.701, 258 340.275 L 262.500 337.681 255.500 344.177 C 251.650 347.749, 246.814 352.141, 244.753 353.937 C 242.693 355.732, 241.216 357.540, 241.471 357.954 C 241.727 358.368, 244.422 359.488, 247.460 360.444 L 252.984 362.181 259.742 358.454 L 266.500 354.726 263.250 358.161 C 261.462 360.050, 260 361.900, 260 362.273 C 260 363.129, 265.113 362.251, 271.171 360.354 L 275.841 358.892 280.208 355.048 L 284.576 351.203 287.253 345.737 C 289.720 340.698, 291.917 333.438, 291.976 330.128 L 292 328.755 290.750 329.719 C 290.063 330.249, 286.800 332.136, 283.500 333.911 L 277.500 337.139 284.893 330.104 L 292.287 323.069 291.688 318.011 C 291.358 315.229, 290.831 312.536, 290.516 312.026 L 289.944 311.100 286.222 313.154 L 282.500 315.208 285.868 312.283 L 289.237 309.358 287.534 306.065 C 285.503 302.138, 278.186 294, 276.686 294 C 275.812 294, 266.291 299.137, 253 306.779 C 251.625 307.569, 254.968 303.962, 260.430 298.763 L 270.360 289.311 265.502 287.655 C 258.759 285.358, 257.582 285.509, 250.096 289.637 L 243.500 293.274 246.946 289.637 L 250.392 286 247.946 286.079 C 246.601 286.122, 243.621 286.824, 241.324 287.638 M 260 370 C 260 370.550, 260.873 371, 261.941 371 C 263.009 371, 264.160 370.550, 264.500 370 L 265.118 369 262.559 369 C 261.152 369, 260 369.450, 260 370 M 239.250 418.573 C 235.813 420.522, 233 422.294, 233 422.512 C 233 422.730, 235.363 421.808, 238.250 420.463 C 241.137 419.118, 244.963 417.739, 246.750 417.398 C 248.537 417.057, 250 416.377, 250 415.889 C 250 413.994, 245.227 415.186, 239.250 418.573 M 245.500 421.930 C 233.646 424.798, 225.079 434.028, 222.039 447.209 C 220.879 452.237, 220.702 464.983, 221.769 466.660 L 222.507 467.820 228.503 464.370 L 234.500 460.920 228.554 466.303 L 222.609 471.686 224.412 476.409 L 226.216 481.131 227.604 480.599 C 228.367 480.306, 233.269 477.597, 238.496 474.579 C 243.723 471.561, 248 469.197, 248 469.325 C 248 469.454, 243.746 473.103, 238.548 477.434 L 229.095 485.309 229.956 486.905 C 230.429 487.782, 231.955 489.565, 233.347 490.867 L 235.878 493.234 246.439 487.174 C 252.247 483.841, 257 481.262, 257 481.443 C 257 481.623, 253.512 484.813, 249.250 488.531 C 244.988 492.250, 241.348 495.683, 241.162 496.160 C 240.698 497.353, 247.304 500, 250.745 500 C 252.291 500, 254.443 499.402, 255.527 498.670 C 256.612 497.939, 260.200 495.848, 263.500 494.024 L 269.500 490.708 264.500 495.972 L 259.500 501.235 263.500 500.553 C 268.942 499.625, 274.828 496.695, 279.798 492.441 L 283.944 488.892 287.399 481.696 C 289.299 477.738, 291.143 472.751, 291.498 470.613 L 292.142 466.727 287.321 469.417 L 282.500 472.108 287.397 467.620 L 292.294 463.133 291.678 457.931 C 291.339 455.070, 290.817 452.484, 290.518 452.185 C 289.920 451.587, 286.363 453.260, 278 458.075 L 272.500 461.241 277.496 456.870 C 280.244 454.467, 284.011 451.126, 285.866 449.446 L 289.240 446.392 287.100 442.196 C 285.923 439.888, 284.554 438, 284.059 438 C 283.563 438, 279.185 440.286, 274.329 443.079 C 264.516 448.725, 264.524 448.660, 274.683 440.226 L 281.867 434.263 278.636 431.131 C 276.859 429.409, 274.864 428, 274.202 428 C 273.541 428, 273 427.605, 273 427.123 C 273 426.641, 270.723 425.267, 267.941 424.070 L 262.881 421.893 254.691 426.570 C 250.186 429.142, 244.936 432.190, 243.025 433.344 L 239.549 435.442 241.688 432.471 C 242.864 430.837, 245.440 427.949, 247.413 426.054 C 252.583 421.087, 252.220 420.305, 245.500 421.930 M 224.750 427.021 C 222.137 428.661, 220 430.491, 220 431.086 C 220 431.970, 225.085 428.599, 229.450 424.822 C 231.329 423.196, 229.413 424.092, 224.750 427.021 M 288 493.049 L 284.500 496.044 287.734 494.272 C 289.513 493.297, 291.187 491.938, 291.453 491.250 C 292.105 489.566, 292.014 489.614, 288 493.049 M 267 503.526 L 260.500 505.766 263.029 506.436 L 265.558 507.106 270.279 504.468 C 274.622 502.040, 276.119 500.787, 274.250 501.143 C 273.837 501.221, 270.575 502.294, 267 503.526" stroke="none" fill="#f09e46" fill-rule="evenodd"/><path d="M 243.500 5.389 C 240.750 6.059, 235.653 8.127, 232.174 9.984 L 225.847 13.360 220.094 19.638 C 213.169 27.196, 208.378 36.267, 206.792 44.824 L 205.619 51.149 206.701 57.462 C 209.481 73.696, 222.389 88.234, 239.754 94.689 L 246.500 97.197 255.641 97.729 L 264.782 98.261 271.770 96.138 L 278.759 94.016 284.691 89.649 C 287.953 87.247, 292.321 82.968, 294.397 80.141 C 296.472 77.313, 298.340 75, 298.548 75 C 299.672 75, 310.771 79.835, 329 88.265 C 350.370 98.148, 359.747 101.843, 368.984 104.019 L 374.468 105.312 371.984 106.329 C 370.618 106.888, 365.563 109.133, 360.750 111.318 L 352 115.290 352 116.784 L 352 118.279 356.750 117.715 C 362.914 116.984, 372.920 113.673, 381.041 109.678 L 387.500 106.500 387.813 102.699 L 388.127 98.898 383.563 89.136 C 381.054 83.766, 379 78.839, 379 78.187 C 379 75.346, 368.662 76.895, 367.009 79.983 L 365.960 81.942 368.480 88.144 C 369.866 91.554, 371 94.446, 371 94.571 C 371 94.695, 355.663 88.222, 336.917 80.188 L 302.834 65.579 303.543 62.539 C 305.080 55.953, 305.597 48.500, 304.883 43.235 L 304.134 37.714 300.965 31.278 L 297.797 24.843 292.433 19.563 L 287.068 14.283 280.041 10.591 L 273.015 6.899 266.257 5.467 C 258.181 3.755, 250.312 3.728, 243.500 5.389 M 243.396 14.423 C 241.139 15.127, 237.261 17.100, 234.778 18.809 L 230.263 21.915 227.181 26.717 C 221.412 35.708, 219.771 46.779, 222.396 59 C 224.301 67.869, 225.108 69.622, 231.479 78.705 C 233.803 82.018, 242.990 87.763, 247.633 88.806 L 251.731 89.727 259.616 88.987 C 268.691 88.135, 271.564 87.156, 277.512 82.884 C 285.983 76.801, 290.574 67.757, 291.495 55.338 L 292.076 47.500 289.629 39.799 C 286.914 31.254, 285.964 29.644, 279.855 23.234 L 275.635 18.806 270.067 16.212 L 264.500 13.619 256 13.381 L 247.500 13.143 243.396 14.423 M 149 57.522 L 149 59.044 153.696 62.022 C 156.278 63.660, 158.696 65, 159.069 65 C 159.441 65, 161.881 65.944, 164.490 67.098 L 169.234 69.197 133.063 83.598 C 113.168 91.519, 96.549 98, 96.130 98 C 95.711 98, 94.418 96.313, 93.256 94.250 C 92.095 92.188, 88.979 88.338, 86.333 85.695 L 81.521 80.890 75.511 77.950 C 69.284 74.905, 61.411 73, 55.052 73 C 49.569 73, 36.361 76.655, 29.059 80.193 L 22.618 83.313 15.477 90.407 L 8.337 97.500 5.704 103 C 4.257 106.025, 2.658 111.200, 2.151 114.500 L 1.229 120.500 2.053 126.434 L 2.877 132.367 6.610 139.921 L 10.343 147.474 15.648 152.778 L 20.952 158.083 27.226 160.999 L 33.500 163.915 40.459 165.010 L 47.418 166.105 51.459 165.461 C 71.965 162.192, 85.171 154.521, 94.129 140.675 L 97.897 134.849 99.576 127.302 L 101.255 119.756 100.149 113.628 C 99.541 110.257, 98.921 106.635, 98.771 105.578 L 98.500 103.656 134 89.422 C 153.525 81.593, 169.616 75.300, 169.758 75.436 C 169.900 75.572, 168.438 79.100, 166.508 83.276 C 164.579 87.452, 163 92.023, 163 93.434 L 163 96 166.277 96 C 170.525 96, 173.367 93.936, 176.513 88.568 C 179.151 84.067, 185 68.940, 185 66.619 L 185 65.296 178.250 62.214 C 169.747 58.332, 160.686 56, 154.106 56 L 149 56 149 57.522 M 44.451 81.062 L 38.402 81.659 33.572 84.071 C 24.361 88.672, 18.641 97.920, 16.870 111.077 L 15.796 119.057 16.866 125.128 C 17.454 128.468, 19.385 134.344, 21.156 138.187 L 24.376 145.174 29.438 149.612 C 32.222 152.053, 36.519 155.030, 38.986 156.229 L 43.473 158.407 52.424 158.168 L 61.374 157.928 65.882 155.934 C 75.496 151.681, 81.849 144.371, 85.152 133.760 L 87 127.822 86.976 121.661 C 86.937 111.599, 83.829 102.121, 78.069 94.500 L 74.290 89.500 67.496 85.741 L 60.702 81.981 55.601 81.224 C 52.796 80.807, 47.778 80.734, 44.451 81.062 M 247 144.482 C 241.775 145.861, 234.771 148.329, 231.436 149.966 L 225.372 152.942 219.436 158.755 C 212.381 165.663, 208.632 172.234, 206.881 180.759 L 205.596 187.018 206.799 194.033 C 207.461 197.891, 209.327 203.970, 210.946 207.540 L 213.889 214.032 219.485 219.899 L 225.080 225.765 231.290 228.801 C 234.706 230.470, 240.256 232.371, 243.624 233.024 L 249.749 234.211 259.515 233.150 L 269.282 232.088 276.391 228.694 C 292.368 221.067, 301.353 209.897, 304.502 193.750 L 305.038 191 335.231 191 L 365.425 191 360.859 195.750 C 355.654 201.165, 353 204.870, 353 206.723 L 353 208 355.033 208 C 356.152 208, 359.401 206.817, 362.255 205.371 L 367.444 202.741 373.665 196.520 L 379.887 190.298 380.576 187.553 L 381.265 184.808 372.882 176.368 L 364.500 167.929 359 168.214 L 353.500 168.500 353.199 171.086 L 352.899 173.671 357.542 178.836 L 362.185 184 333.769 184 L 305.353 184 304.215 177.881 C 303.589 174.515, 301.744 168.913, 300.114 165.430 L 297.151 159.099 292.526 154.474 L 287.901 149.849 281.701 146.989 C 275.184 143.983, 272.304 143.307, 262.500 142.480 L 256.500 141.974 247 144.482 M 449.939 142.939 C 447.431 143.402, 442.567 145.199, 439.130 146.934 L 432.881 150.089 428.308 154.794 C 422.155 161.124, 418.521 166.965, 415.803 174.891 L 413.536 181.500 413.601 191 L 413.666 200.500 415.729 206.168 C 419.915 217.673, 427.568 225.574, 439 230.194 L 444.500 232.417 457.500 232.307 L 470.500 232.198 476.748 230.204 C 492.662 225.127, 504.620 211.766, 508.060 195.219 L 509.249 189.500 508.721 182 L 508.193 174.500 506.082 169 C 504.921 165.975, 502.381 161.339, 500.438 158.697 L 496.904 153.894 490.776 149.934 C 487.406 147.755, 482.365 145.283, 479.574 144.440 L 474.500 142.907 464.500 142.503 C 459 142.280, 452.448 142.476, 449.939 142.939 M 447.332 149.785 C 440.568 152.209, 435.471 156.188, 431.882 161.847 C 428.238 167.593, 427.049 171.614, 426.325 180.631 L 425.753 187.762 426.937 194.559 L 428.120 201.355 431.121 207.427 C 436.632 218.581, 444.797 225.011, 456 227.020 L 462.500 228.185 467.387 227.540 C 485.194 225.189, 498.198 206.899, 496.412 186.714 C 495.422 175.530, 491.693 167.011, 484.217 158.857 L 480.877 155.214 474.363 152.007 L 467.849 148.801 460.175 148.367 L 452.500 147.933 447.332 149.785 M 242.882 150.323 C 236.790 152.597, 232.100 155.989, 228.462 160.754 L 224.986 165.306 223.127 171.403 C 218.092 187.923, 222.364 206.268, 233.942 217.847 L 238.923 222.827 244.711 225.018 L 250.500 227.208 258.539 226.728 L 266.578 226.248 271.646 223.679 C 281.820 218.524, 287.726 211.133, 290.583 199.982 L 292.236 193.530 291.676 187.515 C 290.834 178.470, 290.210 176.050, 287.025 169.500 L 284.107 163.500 279.804 159.350 C 277.437 157.067, 273.045 153.934, 270.043 152.387 L 264.587 149.574 255.543 149.274 L 246.500 148.974 242.882 150.323 M 149.750 191.689 C 144.924 192.950, 149.700 197.916, 159.750 202.088 C 162.637 203.286, 165 204.551, 165 204.899 C 165 205.657, 95.119 233.509, 94.710 232.914 C 94.554 232.686, 93.093 230.507, 91.463 228.071 C 86.389 220.487, 75.870 213.882, 64.914 211.402 C 63.586 211.101, 59.575 210.626, 56 210.346 L 49.500 209.837 41.081 211.885 C 36.451 213.011, 30.161 215.185, 27.104 216.716 L 21.546 219.500 15.881 225.142 L 10.216 230.784 6.587 238.142 L 2.957 245.500 1.979 251.614 L 1 257.728 2.008 263.041 C 2.562 265.963, 4.113 270.750, 5.454 273.679 L 7.892 279.005 13.117 284.530 C 18.486 290.207, 19.394 290.843, 29.300 295.866 L 35.099 298.807 44.300 300.534 L 53.500 302.261 61.185 300.666 C 65.412 299.789, 70.982 298.079, 73.561 296.866 C 78.737 294.434, 89.097 285.337, 91.688 280.951 L 93.344 278.147 99.422 280.435 C 102.765 281.693, 114.950 286.788, 126.500 291.757 C 144.918 299.680, 155.137 303.354, 167.936 306.653 L 171.372 307.538 164.334 310.299 C 160.463 311.818, 155.128 314.436, 152.478 316.116 L 147.660 319.172 148.907 319.942 L 150.154 320.713 154.327 319.912 C 163.261 318.197, 179.528 311.472, 182.901 308.099 C 184.056 306.944, 185.012 304.987, 185.027 303.750 C 185.055 301.423, 175.272 281.067, 173.500 279.765 C 171.900 278.589, 165.512 278.888, 164.200 280.200 C 162.429 281.971, 162.777 286.912, 165.022 291.859 C 166.110 294.257, 167 296.338, 167 296.484 C 167 296.631, 151.458 290.619, 132.462 283.125 L 97.924 269.500 98.632 267.500 C 99.022 266.400, 99.409 260.112, 99.493 253.527 L 99.644 241.554 134.007 227.795 C 152.907 220.228, 168.544 214.210, 168.756 214.423 C 168.968 214.635, 167.739 217.505, 166.023 220.801 C 164.308 224.097, 162.814 228.014, 162.702 229.506 L 162.500 232.219 164.095 233.257 L 165.690 234.295 168.498 233.590 C 170.041 233.202, 172.545 231.558, 174.060 229.935 L 176.816 226.985 179.889 218.243 C 181.580 213.434, 183.626 208.261, 184.436 206.747 L 185.910 203.994 183.705 201.872 C 177.395 195.799, 157.199 189.743, 149.750 191.689 M 37.500 218.171 C 25.522 222.664, 17.989 233.753, 16.432 249.183 L 15.795 255.500 17.440 263.413 L 19.085 271.327 22.627 277.660 C 26.466 284.525, 30.349 288.221, 38.353 292.628 L 43.500 295.462 52.164 295.410 L 60.829 295.359 67.372 292.137 L 73.916 288.916 77.453 284.784 C 86.333 274.410, 89.293 258.897, 85.004 245.217 C 82.454 237.080, 81.619 235.554, 76.249 229.207 L 71.771 223.913 65.636 220.769 L 59.500 217.625 50 217.336 L 40.500 217.046 37.500 218.171 M 452.580 278.097 C 449.324 278.578, 443.808 280.305, 440.322 281.937 L 433.983 284.903 428.471 290.115 L 422.960 295.328 419.087 303.066 L 415.214 310.805 413.984 318.093 L 412.755 325.381 413.346 330.941 C 414.251 339.451, 416.622 346.207, 421.011 352.779 L 425.005 358.760 430.253 362.353 C 436.595 366.694, 442.227 368.756, 451.243 370.035 L 458.032 370.997 467.701 369.545 L 477.370 368.092 483.527 365.061 L 489.684 362.030 494.847 356.868 L 500.009 351.705 503.431 344.865 C 505.313 341.103, 507.392 335.432, 508.051 332.263 L 509.248 326.500 508.737 318.290 L 508.226 310.081 505.060 303.290 L 501.895 296.500 497.197 291.704 C 491.242 285.623, 486.304 282.733, 477.500 280.176 C 468.851 277.664, 460.334 276.953, 452.580 278.097 M 246.950 281.047 C 243.348 282.054, 237.891 283.817, 234.822 284.965 L 229.244 287.053 221.691 293.497 L 214.138 299.941 210.549 307.221 L 206.959 314.500 206.358 321.002 L 205.757 327.503 207.354 333.736 C 211.809 351.127, 222.633 363.294, 237.855 368.025 L 244.211 370 250.855 369.980 C 254.510 369.969, 260.360 369.546, 263.855 369.041 L 270.210 368.122 277.650 364.589 L 285.090 361.056 291.041 355.379 L 296.992 349.703 299.932 343.821 C 301.548 340.586, 303.379 335.490, 304.001 332.497 L 305.130 327.055 336.038 326.778 L 366.945 326.500 361.617 332 C 356.264 337.526, 353 341.777, 353 343.223 C 353 343.650, 354.012 343.996, 355.250 343.991 C 358.875 343.975, 367.850 338.244, 374.671 331.589 L 381 325.414 381 323.077 L 381 320.741 372.750 312.846 C 363.813 304.293, 362.079 303.406, 356.906 304.740 L 353.500 305.618 353.182 307.797 L 352.864 309.976 358.077 315.488 L 363.290 321 334.318 321 L 305.346 321 304.103 314.250 C 303.420 310.538, 301.554 304.760, 299.956 301.411 L 297.051 295.322 291.994 290.591 C 280.745 280.069, 263.511 276.417, 246.950 281.047 M 450.648 286.211 C 441.569 288.097, 433.890 294.676, 429.302 304.500 L 426.500 310.500 426.500 321.517 L 426.500 332.533 429.476 339.933 L 432.452 347.334 437.445 352.796 L 442.437 358.258 446.871 360.159 C 449.310 361.205, 453.280 362.502, 455.692 363.043 L 460.078 364.026 466.652 362.976 C 482.594 360.429, 493.094 349.608, 496.040 332.690 L 497.205 326 496.039 319.250 L 494.874 312.500 491.687 306.141 L 488.500 299.782 483.552 295.310 C 480.831 292.851, 476.866 289.952, 474.742 288.868 L 470.879 286.898 462.603 286.172 C 458.051 285.773, 452.671 285.790, 450.648 286.211 M 239.207 288.584 L 234.022 291.168 230.120 295.601 C 227.974 298.039, 224.986 302.614, 223.479 305.767 L 220.741 311.500 219.870 319.892 L 218.999 328.284 220.104 332.387 C 223.394 344.606, 234.451 356.043, 247.448 360.671 L 251.500 362.115 259.621 362.238 L 267.742 362.361 273.336 359.624 L 278.929 356.888 282.931 352.341 C 285.132 349.840, 287.921 345.253, 289.128 342.147 L 291.323 336.500 291.770 326.380 L 292.217 316.260 290.507 312.380 C 287.263 305.023, 286.600 303.893, 283.192 299.911 C 279.328 295.397, 270.547 289.457, 264.676 287.386 L 260.749 286 252.571 286 L 244.393 286 239.207 288.584 M 37 346.541 C 29.099 348.744, 21.618 353.579, 15.028 360.739 L 9.286 366.978 6.209 373.239 C 4.517 376.682, 2.584 382.487, 1.914 386.138 L 0.696 392.776 1.944 399.138 C 2.630 402.637, 4.372 407.975, 5.815 411 L 8.438 416.500 15.470 423.500 L 22.501 430.500 29.261 433.766 C 38.138 438.053, 45.895 440, 54.105 440 L 60.789 440 67.192 438.023 C 70.713 436.935, 76.048 434.334, 79.047 432.242 L 84.500 428.439 89.423 421.970 L 94.346 415.500 96.650 415.685 C 97.918 415.787, 105.828 418.859, 114.228 422.512 C 122.627 426.164, 135.056 431.416, 141.847 434.181 L 154.194 439.209 162.635 440.918 C 167.277 441.858, 171.108 443.048, 171.147 443.563 C 171.186 444.079, 166.557 446.504, 160.859 448.954 C 155.162 451.403, 150.169 453.878, 149.765 454.454 C 146.211 459.515, 155.537 457.124, 176.212 447.673 L 183.925 444.148 184.586 441.514 L 185.247 438.879 179.619 427.440 L 173.992 416 170.430 416 C 168.471 416, 165.998 416.466, 164.934 417.035 L 163 418.070 163 420.908 C 163 422.469, 163.938 425.865, 165.084 428.456 C 166.230 431.047, 167.017 433.311, 166.834 433.489 C 166.597 433.717, 99.650 407.421, 98.357 406.592 C 98.278 406.541, 98.885 403.350, 99.706 399.500 L 101.200 392.500 100.110 385.230 C 97.633 368.706, 85.899 355.078, 68.377 348.376 L 61.500 345.745 52 345.376 L 42.500 345.006 37 346.541 M 37.500 356.713 L 32.500 358.438 26.874 363.969 L 21.249 369.500 19.115 375.313 L 16.981 381.127 16.595 387.646 L 16.210 394.164 17.510 400.332 C 20.849 416.180, 31.119 427.295, 44.703 429.764 L 49.806 430.692 55.363 429.938 C 62.719 428.939, 70.826 425.123, 76.290 420.087 L 80.729 415.995 83.600 409.747 L 86.471 403.500 86.447 393.500 L 86.422 383.500 84.603 379.500 C 80.449 370.367, 79.282 368.591, 74.731 364.474 C 72.107 362.101, 68.057 359.240, 65.731 358.115 L 61.500 356.070 52 355.529 L 42.500 354.988 37.500 356.713 M 352.415 396.137 L 351.712 397.274 354.106 399.110 C 355.423 400.120, 360.325 402.512, 365 404.425 C 369.675 406.339, 372.929 407.926, 372.231 407.952 C 371.534 407.978, 355.230 414.750, 336 423 C 316.770 431.250, 300.691 437.992, 300.269 437.982 C 299.846 437.972, 298.050 435.746, 296.277 433.035 C 289.882 423.253, 277.461 416.418, 264.065 415.309 L 257.500 414.766 250.500 416.501 C 225.483 422.700, 208.792 438.899, 206.394 459.307 L 205.775 464.573 207.363 470.771 C 209.571 479.390, 213.022 485.768, 219.038 492.351 L 224.184 497.982 231.592 501.643 L 239 505.304 248.910 505.782 L 258.820 506.259 266.660 503.707 C 278.756 499.770, 280.982 498.608, 288.500 492.306 C 296.710 485.425, 301.393 478.894, 303.626 471.215 L 305.234 465.683 304.670 457.591 C 304.360 453.141, 303.818 448.332, 303.466 446.904 L 302.826 444.307 338.097 429.171 C 357.496 420.846, 373.502 414.169, 373.666 414.333 C 373.830 414.497, 372.397 417.901, 370.482 421.897 C 368.567 425.893, 367 430.221, 367 431.514 L 367 433.865 368.950 434.484 L 370.900 435.103 373.831 433.587 C 375.443 432.754, 377.924 430.690, 379.345 429.002 L 381.928 425.932 384.889 416.716 C 386.518 411.647, 388.159 406.710, 388.535 405.745 L 389.218 403.989 383.769 401.495 C 376.550 398.190, 363.845 395, 357.899 395 L 353.118 395 352.415 396.137 M 242.387 422.869 C 232.628 426.173, 225.766 433.921, 222.483 445.345 L 220.803 451.191 221.311 459.345 C 221.911 468.966, 223.035 474.386, 225.287 478.500 C 226.189 480.150, 227.606 482.916, 228.434 484.647 C 230.286 488.516, 238.021 495.300, 243.804 498.127 L 248.108 500.231 255.004 500.701 L 261.899 501.171 267.276 499.608 L 272.654 498.045 277.292 494.503 C 285.998 487.856, 290.813 478.301, 291.669 465.977 L 292.199 458.341 290.441 451.921 C 288.108 443.397, 286.051 439.532, 280.529 433.293 L 275.920 428.086 269.710 425.125 L 263.500 422.164 255.395 421.687 L 247.290 421.209 242.387 422.869" stroke="none" fill="#252524" fill-rule="evenodd"/></svg>